<?xml version="1.0" standalone="no"?>
<!DOCTYPE svg PUBLIC "-//W3C//DTD SVG 1.1//EN" "http://www.w3.org/Graphics/SVG/1.1/DTD/svg11.dtd" >
<svg>
<metadata>
Created by FontForge 20110222 at Thu Jul 11 04:02:00 2013
 By Orthosie Webhosting
Copyright (c) 2012 by ArtLebedev Studio. All rights reserved.
</metadata>
<defs>
<font id="ALSGrossKunstItalic" horiz-adv-x="536" >
  <font-face 
    font-family="ALSGrossKunstItalic"
    font-weight="400"
    font-style="italic"
    font-stretch="normal"
    units-per-em="1000"
    panose-1="2 0 0 0 0 0 0 0 0 0"
    ascent="750"
    descent="-250"
    x-height="500"
    cap-height="750"
    bbox="-110 -320 1756 996"
    underline-thickness="50"
    underline-position="-50"
    slope="-12"
    unicode-range="U+0020-FB01"
  />
<missing-glyph horiz-adv-x="300" 
 />
    <glyph glyph-name="ff" unicode="ff" horiz-adv-x="659" 
d="M195 -300h-99q16 712 16 732l-92 5v63h94q2 104 20 182t45.5 123.5t67.5 73t77.5 37t83.5 9.5q69 0 126 -33l-10 -67l-77 -10q-15 21 -34.5 31t-59.5 10t-73 -23q-17 -17 -26 -31.5t-20.5 -49t-16.5 -97t-5 -155.5h217q4 184 63 254.5t172 70.5q27 0 50.5 -3.5t33.5 -7.5
l11 -4l-10 -67l-77 -10q-21 27 -57 27q-37 0 -55 -22q-33 -58 -33 -238h190l-10 -80l-181 10l-16 -730h-99q15 667 16 727l-216 8z" />
    <glyph glyph-name="fi" unicode="fi" horiz-adv-x="572" 
d="M422 0l5 348l-9 74l-207 8l-16 -730h-99q16 712 16 732l-92 5v63h94q2 96 19.5 160.5t51.5 100t77.5 50t105.5 14.5q32 0 77.5 -11.5t83.5 -33.5q0 -36 -4 -70.5t-7.5 -51t-5.5 -18.5l-70 -8q-11 74 -28.5 101t-73.5 27q-57 0 -95 -22q-33 -58 -33 -238h310l-5 -383
l15 -107l-61 -10h-49z" />
    <glyph glyph-name="ft" unicode="ft" horiz-adv-x="687" 
d="M20 437v63h94q4 184 63 254.5t172 70.5q27 0 50.5 -3.5t34.5 -7.5l10 -4l-10 -67l-77 -10q-21 27 -57 27q-37 0 -55 -22q-33 -58 -33 -238h171l73 129h48q-3 -110 -3 -134l161 5l-10 -75l-152 9q-4 -220 -4 -302q0 -58 54 -58q20 6 45 25.5t40 35.5l15 16l27 -15
q-57 -132 -158 -146q-84 0 -123 61q0 4 2 86.5t4.5 175.5t2.5 117l-194 8l-16 -738h-99q16 712 16 732z" />
    <glyph glyph-name="cl" unicode="&#x441;&#x43b;" horiz-adv-x="771" 
d="M573 520h55l88 -358l50 -142l-60 -20h-53l-35 106l-59 293l-5 1q-10 -62 -22.5 -112.5t-38 -108.5t-59.5 -97.5t-88 -65.5t-122 -26q-114 0 -164 54q-30 52 -30 156q0 144 66 227t184 83q30 0 55.5 -5t36.5 -10l11 -5l-10 -67l-77 -10q-28 22 -72 22q-39 0 -65 -19
q-35 -63 -35 -167q0 -45 4.5 -76t16 -58.5t35.5 -41.5t61 -14q42 0 72 9q155 83 220 374v20l-15 48z" />
    <glyph glyph-name="kl" unicode="&#x43a;&#x43b;" horiz-adv-x="869" 
d="M671 520h55l88 -358l50 -142l-60 -20h-53l-35 106l-59 293l-5 1q-38 -410 -212 -410q-49 0 -79 19q-29 24 -82 98.5t-85 97.5q-16 -43 -24 -87v-30l10 -78l-50 -10h-60l10 328l-50 152l60 20h50l25 -116q0 -46 -8 -125t-8 -108l5 -1q18 122 86 219.5t140 140.5
q60 0 100 -20l-10 -77l-72 -13q-18 6 -44 6q-58 -26 -111 -107q29 -22 60 -62t52.5 -71.5t52 -56t62.5 -24.5q14 0 30 4q48 34 86 144.5t45 208.5v20l-15 48z" />
    <glyph glyph-name="ele" unicode="&#x435;&#x43b;" horiz-adv-x="776" 
d="M30 213q0 133 66 215t180 82q39 0 68 -10t39 -20l10 -10q9 -31 9 -70q0 -169 -249 -220l-25 -5q7 -56 33 -84.5t80 -28.5q39 0 88 21q67 41 122.5 132t86.5 227v20l-15 48l55 10h55l88 -358l50 -142l-60 -20h-53l-35 106l-59 293l-5 1q-13 -80 -37 -147.5t-63.5 -129.5
t-102 -97.5t-142.5 -35.5q-104 0 -154 54q-30 52 -30 169zM124 249q0 -24 1 -36q58 18 104.5 50t72.5 67q8 17 8 45q0 11 -2 19t-8.5 18.5t-23 16.5t-42.5 6q-46 0 -75 -20q-35 -63 -35 -166z" />
    <glyph glyph-name=".notdef" horiz-adv-x="300" 
 />
    <glyph glyph-name=".null" horiz-adv-x="0" 
 />
    <glyph glyph-name="nonmarkingreturn" horiz-adv-x="333" 
 />
    <glyph glyph-name="space" unicode=" " horiz-adv-x="300" 
 />
    <glyph glyph-name="exclam" unicode="!" horiz-adv-x="275" 
d="M98 290l6 320l-18 121l75 19h46l3 -113l-27 -289v-58h-85zM80 -10l-15 128l85 20h65v-21q0 -73 -14 -127h-121z" />
    <glyph glyph-name="quotedbl" unicode="&#x22;" horiz-adv-x="431" 
d="M83 785l60 13h41v-115q0 -65 -28 -118t-69 -72l-27 18l23 84v190zM270 785l60 13h41v-115q0 -65 -28 -118t-69 -72l-27 18l23 84v190z" />
    <glyph glyph-name="numbersign" unicode="#" horiz-adv-x="652" 
d="M92 -88l21 216l-78 -4l-10 81h101l39 192l-78 -4l-10 81h104l49 245h65l-25 -245h118l49 245h65l-25 -245h90v-68l-104 -5l-38 -196h90v-68l-106 -5l-45 -220h-65l21 219l-118 -5l-45 -214h-65zM217 202h115l40 201l-115 -5z" />
    <glyph glyph-name="dollar" unicode="$" 
d="M228 -86l3 88q-50 1 -92.5 10t-60.5 18l-17 8v43l30 52l143 -41l8 240l-147 102q-16 37 -16 79q0 89 46.5 140.5t129.5 65.5l-4 82l31 10h31l-3 -86h13q64 0 120 -22v-58l-47 -35l-89 26l-7 -210l163 -114q26 -33 26 -96q0 -83 -56 -143t-147 -70l7 -89h-65zM330 282
l-34 23l-8 -224q60 5 86 37q16 26 16 68q0 28 -12 48t-48 48zM176 550q0 -44 52 -85l18 -13l6 191q-37 -4 -63 -27q-13 -26 -13 -66z" />
    <glyph glyph-name="percent" unicode="%" horiz-adv-x="796" 
d="M140 0l122 240l318 510h69l-122 -240l-318 -510h-69zM120 574q0 -132 93 -132q45 0 73 22q20 35 20 88q0 60 -23 96t-70 36q-45 0 -73 -22q-20 -35 -20 -88zM40 552q0 87 51.5 142.5t130.5 55.5q98 0 143 -55q21 -57 21 -121q0 -87 -52 -142.5t-131 -55.5q-97 0 -142 55
q-21 57 -21 121zM482 198q0 -132 97 -132q47 0 77 22q20 35 20 88q0 132 -97 132q-47 0 -77 -22q-20 -35 -20 -88zM397 176q0 87 54.5 142.5t137.5 55.5q103 0 150 -55q22 -56 22 -121q0 -87 -54.5 -142.5t-137.5 -55.5q-103 0 -150 55q-22 56 -22 121z" />
    <glyph glyph-name="ampersand" unicode="&#x26;" horiz-adv-x="855" 
d="M259 -10q-111 0 -175 54q-16 30 -28.5 80t-12.5 84v9l40 15h55q18 -90 54.5 -126.5t92.5 -36.5q67 0 128 38q-186 145 -267 337q-6 45 -6 90q0 112 64 169t175 57q90 0 153 -54q15 -33 15 -81q0 -81 -72 -148t-171 -107q32 -53 85 -106.5t107 -92.5q49 41 90.5 110
t64.5 143l-109 -2l-10 79h330v-70l-118 -4q-62 -195 -176 -303q48 -31 135 -49l142 21l18 -64q-55 -42 -148 -42q-114 0 -232 67q-103 -67 -224 -67zM223 573q0 -60 44 -141q96 40 137 86t41 86q0 35 -26.5 55.5t-73.5 20.5q-61 0 -94 -22q-28 -30 -28 -85z" />
    <glyph glyph-name="quotesingle" unicode="'" horiz-adv-x="244" 
d="M83 785l60 13h41v-115q0 -65 -28 -118t-69 -72l-27 18l23 84v190z" />
    <glyph glyph-name="parenleft" unicode="(" horiz-adv-x="330" 
d="M21 188q0 148 17 257t42.5 171.5t66.5 101.5t78 52.5t88 19.5l9 -45q-32 -11 -76 -35.5t-70 -48.5q-30 -56 -48 -142.5t-18 -246.5q0 -233 36.5 -330.5t142.5 -126.5l-11 -55q-150 8 -219 80q-15 48 -26.5 147.5t-11.5 200.5z" />
    <glyph glyph-name="parenright" unicode=")" horiz-adv-x="330" 
d="M17 -240l-9 45q32 11 76 35.5t70 48.5q30 56 48 142.5t18 246.5q0 233 -36.5 330.5t-142.5 126.5l11 55q150 -8 219 -80q15 -48 26.5 -147.5t11.5 -200.5q0 -148 -17 -257t-42.5 -171.5t-66.5 -101.5t-78 -52.5t-88 -19.5z" />
    <glyph glyph-name="asterisk" unicode="*" horiz-adv-x="509" 
d="M304 554l87 -116l-64 -43l-69 124h-4l-81 -126l-62 43l98 118l-2 3l-127 25v25l18 47l127 -44l4 2v135l79 10l-19 -145l4 -2l136 56l20 -73l-143 -36z" />
    <glyph glyph-name="plus" unicode="+" horiz-adv-x="525" 
d="M212 50l6 192l-163 -3l-10 79h176l7 177l80 10l-7 -187h179v-70l-182 -4l-6 -184l-30 -10h-50z" />
    <glyph glyph-name="comma" unicode="," horiz-adv-x="265" 
d="M85 -34l-15 118l85 20h50v-21q0 -92 -28 -171.5t-56 -100.5l-36 14v141z" />
    <glyph glyph-name="hyphen" unicode="-" horiz-adv-x="372" 
d="M35 316h305v-70l-295 -9z" />
    <glyph glyph-name="period" unicode="." horiz-adv-x="270" 
d="M75 -10l-15 128l85 20h65v-21q0 -73 -14 -127h-121z" />
    <glyph glyph-name="slash" unicode="/" horiz-adv-x="313" 
d="M-15 -231l78 349l214 675h51l-78 -349l-214 -675h-51z" />
    <glyph glyph-name="zero" unicode="0" horiz-adv-x="530" 
d="M22 365q0 196 65 295.5t207 99.5q52 0 96.5 -18t63.5 -36l18 -18q35 -95 35 -303q0 -196 -65.5 -295.5t-207.5 -99.5q-52 0 -96.5 18t-63.5 36l-18 18q-34 92 -34 303zM117 375q0 -169 31 -237t119 -68q31 0 60.5 14t46.5 34q38 92 38 257q0 171 -31.5 238t-119.5 67
q-32 0 -61.5 -14t-45.5 -34q-37 -90 -37 -257z" />
    <glyph glyph-name="one" unicode="1" horiz-adv-x="530" 
d="M262 0l19 579l-149 -13l-9 44l105 50l111 100h31q-11 -632 -11 -645l18 -95l-75 -20h-40z" />
    <glyph glyph-name="two" unicode="2" horiz-adv-x="530" 
d="M50 0v70l241 326q83 114 83 193q0 35 -23.5 63t-66.5 28l-169 -42l-23 66q98 56 214 56q29 0 55 -6t43 -14t30 -16.5t19 -14.5l6 -6q20 -37 20 -100q0 -120 -114 -262l-213 -265l309 14l10 -90h-421z" />
    <glyph glyph-name="three" unicode="3" horiz-adv-x="530" 
d="M63 122l171 -52q86 0 135 38q22 42 22 105q0 25 -3.5 44t-15 42t-38.5 38t-68 19l-97 9v69h136q24 13 45 53t21 90q0 45 -27 74t-73 29l-160 -42l-27 66q103 56 207 56q53 0 94 -15.5t56 -30.5l15 -16q20 -37 20 -84q0 -62 -30 -112t-71 -81l84 -18q37 -56 37 -154
q0 -122 -71 -190.5t-193 -68.5q-110 0 -198 57z" />
    <glyph glyph-name="four" unicode="4" horiz-adv-x="530" 
d="M2 175v50l286 417l54 118h50v-9q0 -54 -19.5 -104.5t-62.5 -112.5l-197 -282l216 8v20l-8 120l66 20h40q-4 -139 -4 -155l93 5l11 -95h-105q-1 -45 -1 -60l18 -95l-75 -20h-40q3 156 3 175h-325z" />
    <glyph glyph-name="five" unicode="5" horiz-adv-x="530" 
d="M388 261q0 53 -26 82.5t-68 29.5q-101 0 -197 -8l-3 2q4 224 4 243l-28 120l76 20h332l-10 -90l-281 19l7 -44l-17 -222l3 -2q79 33 167 48q69 0 114 -39q27 -51 27 -146q0 -115 -66.5 -199.5t-182.5 -84.5q-110 0 -198 57l29 75l171 -52q40 0 76 13.5t49 29.5
q22 42 22 148z" />
    <glyph glyph-name="six" unicode="6" horiz-adv-x="530" 
d="M40 300q0 242 72 351t220 109q39 0 75 -4t52 -8l16 -5v-48l-35 -45l-119 23l-20 2q-81 0 -121 -49q-50 -81 -50 -245q28 30 82.5 54.5t103.5 24.5q79 0 128 -37q46 -62 46 -169q0 -114 -59.5 -189t-179.5 -75q-37 0 -69 7.5t-52 18t-34 21t-20 17.5l-6 8q-30 77 -30 238z
M132 303q7 -120 35.5 -174t108.5 -54q31 0 60 10.5t43 27.5q21 44 21 110q0 76 -27.5 112t-95.5 36q-35 0 -69.5 -15t-51 -29t-24.5 -24z" />
    <glyph glyph-name="seven" unicode="7" horiz-adv-x="530" 
d="M53 651l-10 99h444v-55l-267 -695h-108l276 667z" />
    <glyph glyph-name="eight" unicode="8" horiz-adv-x="530" 
d="M259 342l-55 -41q-61 -46 -61 -116q0 -48 33.5 -81.5t87.5 -33.5q85 0 113 43q10 31 10 72q0 33 -14.5 57.5t-52.5 53.5zM77 479q-8 36 -8 85q0 85 57.5 140.5t154.5 55.5q94 0 157 -52q20 -53 20 -107q0 -43 -19.5 -91.5t-63.5 -81.5l-40 -30l128 -95q17 -43 17 -102
q0 -98 -59.5 -154.5t-164.5 -56.5q-120 0 -183 52q-23 53 -23 115q0 115 102 199l41 34zM269 446l51 38q24 18 38.5 45.5t14.5 54.5q0 49 -33.5 72.5t-74.5 23.5q-62 0 -96 -31q-12 -24 -12 -65q0 -54 57 -97z" />
    <glyph glyph-name="nine" unicode="9" horiz-adv-x="530" 
d="M62 117l147 -37l40 -5q77 0 111 43q41 71 43 245q-30 -28 -81 -48t-105 -20q-79 0 -128 37q-46 62 -46 164q0 112 65 188t186 76q52 0 94 -18t58 -36l17 -18q30 -90 30 -258q0 -109 -14.5 -190t-37.5 -128t-56.5 -75.5t-65.5 -37.5t-71 -9q-58 0 -111 14t-77 28l-23 15z
M133 514q0 -67 28 -101t95 -34q45 0 84.5 20.5t61.5 41.5q-5 135 -33 184.5t-107 49.5q-28 0 -56 -10.5t-42 -27.5q-31 -48 -31 -123z" />
    <glyph glyph-name="colon" unicode=":" horiz-adv-x="276" 
d="M81 372l-15 128l85 20h65v-21q0 -73 -14 -127h-121zM75 -10l-15 128l85 20h65v-21q0 -73 -14 -127h-121z" />
    <glyph glyph-name="semicolon" unicode=";" horiz-adv-x="270" 
d="M75 372l-15 128l85 20h65v-21q0 -73 -14 -127h-121zM85 0l-15 118l85 20h50v-21q0 -92 -28 -171.5t-56 -100.5l-36 14v141z" />
    <glyph glyph-name="less" unicode="&#x3c;" horiz-adv-x="575" 
d="M39 237v54l466 240l27 -56l-387 -205v-4l383 -211l-52 -75z" />
    <glyph glyph-name="equal" unicode="=" horiz-adv-x="500" 
d="M75 313l-10 79h370v-70zM75 163l-10 79h370v-70z" />
    <glyph glyph-name="greater" unicode="&#x3e;" horiz-adv-x="575" 
d="M42 53l387 205v4l-383 211l52 75l437 -257v-54l-466 -240z" />
    <glyph glyph-name="question" unicode="?" horiz-adv-x="418" 
d="M138 290q-3 12 -3 26q0 17 2 31.5t9 29t11.5 23.5t18.5 25t21 23t28.5 28t31.5 31q49 49 49 89q0 26 -6 38.5t-20 22.5q-24 18 -68 18l-42 -8l-131 -34l-26 61q42 27 104.5 46.5t119.5 19.5q103 0 153 -47q19 -45 19 -93q0 -63 -23 -99.5t-86 -92.5q-25 -22 -42 -39
t-22 -23l-4 -6q-5 -23 -7 -44l-2 -26h-85zM119 -10l-15 128l85 20h65v-21q0 -73 -14 -127h-121z" />
    <glyph glyph-name="at" unicode="@" horiz-adv-x="793" 
d="M40 191q0 235 101 350t308 115q88 0 161.5 -20.5t110.5 -54.5q42 -70 42 -231q0 -101 -19.5 -182t-54.5 -117q-57 -31 -118 -31q-28 0 -51.5 3t-33.5 7l-10 3q0 79 6.5 159.5t6.5 100.5l-5 1q-23 -106 -52 -172.5t-78 -101.5q-81 0 -125 51q-20 55 -20 145
q0 135 60.5 209t180.5 74q43 0 75.5 -4.5t42.5 -9.5l11 -5l-10 -64l-73 -9q-33 25 -93 25q-41 0 -65 -24q-33 -64 -33 -162q0 -60 14 -102.5t39 -42.5q49 43 74.5 100t48.5 148l94 -11q-4 -132 -4 -184l9 -76q39 13 63.5 89.5t24.5 179.5q0 24 -1 42t-6 45.5t-13.5 47
t-25 41.5t-40 36t-59 23t-80.5 9q-67 0 -129.5 -16t-91.5 -41q-82 -108 -82 -310q0 -177 56 -250t209 -73q146 0 307 69l18 -47q-76 -44 -169 -65.5t-173 -21.5q-98 0 -167.5 17.5t-128.5 57.5q-52 115 -52 280z" />
    <glyph glyph-name="A" unicode="A" horiz-adv-x="636" 
d="M15 0l49 117l204 629l120 14l187 -643l43 -97l-78 -20h-40l-61 230l-255 -20l-27 -93l-27 -107l-65 -10h-50zM209 300h213l-99 382h-4z" />
    <glyph glyph-name="B" unicode="B" horiz-adv-x="566" 
d="M68 5l10 605l-28 101q111 49 225 49q46 0 84 -8t59 -19t36 -22.5t20 -19.5l5 -8q19 -41 19 -95q0 -50 -25.5 -98t-75.5 -80q47 -9 79 -27q24 -16 42 -59t18 -94q0 -106 -73 -173t-235 -67q-33 0 -73 4t-63 8zM169 361l-4 -246l6 -31q34 -14 108 -14q38 0 74.5 13t57.5 32
q27 45 27 105q0 55 -35.5 91t-104.5 41zM174 635l-4 -209h91q40 0 69 14t43.5 37t20.5 46.5t6 49.5q0 48 -37.5 80t-101.5 32q-48 0 -95 -7z" />
    <glyph glyph-name="C" unicode="C" horiz-adv-x="497" 
d="M40 310q0 234 80 343q77 107 234 107q71 0 123 -22v-58l-47 -35l-129 35q-67 0 -107 -48q-25 -35 -42 -108.5t-17 -157.5q0 -167 43 -228q46 -63 134 -63l142 21l18 -64q-72 -42 -179 -42q-41 0 -78.5 7.5t-61 18.5t-41.5 22t-26 18l-8 8q-38 82 -38 246z" />
    <glyph glyph-name="D" unicode="D" horiz-adv-x="580" 
d="M174 635l-8 -520l6 -32q32 -13 87 -13q50 0 90 14t56 34q18 38 29 114t11 143q0 172 -36 243t-142 71q-59 0 -101 -11zM69 5l9 605l-28 101q12 5 33 13.5t82 22t117 13.5q45 0 83.5 -7.5t62.5 -18t41.5 -21t24.5 -17.5l7 -8q16 -32 27.5 -105t11.5 -154q0 -243 -69 -341
t-242 -98q-33 0 -73 4t-64 8z" />
    <glyph glyph-name="E" unicode="E" horiz-adv-x="496" 
d="M68 0l10 610l-28 120l76 20h332l-10 -90l-281 19l7 -44q-4 -187 -4 -204h232l-10 -90l-223 20q-4 -230 -4 -246l5 -25l296 -20v-70h-398z" />
    <glyph glyph-name="F" unicode="F" horiz-adv-x="463" 
d="M68 0l10 610l-28 120l76 20h332l-10 -90l-281 19l7 -44q-4 -192 -4 -209h232l-10 -90l-223 20q-4 -224 -4 -241l18 -95l-75 -20h-40z" />
    <glyph glyph-name="G" unicode="G" horiz-adv-x="549" 
d="M278 319v70h241l-5 -289q-64 -110 -235 -110q-42 0 -78 7.5t-57.5 18t-37 21t-21.5 17.5l-6 8q-39 84 -39 259q0 221 73 330t226 109q39 0 85 -7.5t68 -19.5v-53l-47 -40l-129 40q-87 0 -139 -49q-17 -27 -29.5 -99.5t-12.5 -145.5q0 -185 30.5 -250.5t119.5 -65.5
q84 0 135 32q5 178 5 205z" />
    <glyph glyph-name="H" unicode="H" horiz-adv-x="611" 
d="M68 0l10 610l-28 120l76 20h40l8 -115q-4 -198 -4 -219h287q4 179 4 194l-18 120l76 20h40q-11 -615 -11 -635l18 -95l-75 -20h-40q5 333 5 346l-288 -18q-3 -197 -3 -213l18 -95l-75 -20h-40z" />
    <glyph glyph-name="I" unicode="I" horiz-adv-x="258" 
d="M83 0l10 610l-28 120l76 20h40l8 -115q-9 -502 -9 -520l18 -95l-75 -20h-40z" />
    <glyph glyph-name="J" unicode="J" horiz-adv-x="279" 
d="M5 26l39 25q58 37 66 75q8 468 8 484l-28 120l76 20h40l8 -115l-8 -432q-1 -41 -5.5 -69t-17.5 -60.5t-42 -56t-73 -38.5l-39 -13z" />
    <glyph glyph-name="K" unicode="K" horiz-adv-x="566" 
d="M68 0l10 610l-28 120l76 20h40l8 -115q-4 -205 -4 -219h76l136 219l58 115h120l-104 -140l-149 -225l177 -270l77 -94l-63 -21h-77l-187 334l-66 -6q-3 -201 -3 -213l18 -95l-75 -20h-40z" />
    <glyph glyph-name="L" unicode="L" horiz-adv-x="461" 
d="M68 0l10 610l-28 120l76 20h40l8 -115q-9 -500 -9 -520l4 -25l287 -20v-70h-388z" />
    <glyph glyph-name="M" unicode="M" horiz-adv-x="801" 
d="M50 0l30 730l116 20l200 -585h4l12 40l183 525l76 20h53q9 -616 9 -635l18 -95l-75 -20h-40q-3 609 -3 626h-4l-32 -116l-154 -440h-116l-150 458l-17 94h-4q-19 -483 -19 -507l18 -105l-55 -10h-50z" />
    <glyph glyph-name="N" unicode="N" horiz-adv-x="586" 
d="M50 0l10 740l106 20l240 -512l46 -144h4l-16 206l4 300l-18 130l56 10h50l-9 -635l18 -95l-75 -20h-50l-245 523l-41 120h-4l16 -228l-4 -300l17 -105l-55 -10h-50z" />
    <glyph glyph-name="O" unicode="O" horiz-adv-x="589" 
d="M40 321q0 439 287 439q34 0 65.5 -7.5t52 -18t36 -21t22.5 -17.5l7 -8q39 -84 39 -259q0 -221 -69 -330t-213 -109q-54 0 -101 18t-67 36l-20 18q-39 84 -39 259zM135 386q0 -182 34.5 -249t125.5 -67q32 0 66.5 16t50.5 36q17 28 29.5 96.5t12.5 140.5q0 181 -37 251
t-128 70q-32 0 -64 -14.5t-48 -34.5q-17 -27 -29.5 -99.5t-12.5 -145.5z" />
    <glyph glyph-name="P" unicode="P" horiz-adv-x="526" 
d="M68 0l10 610l-28 101q113 49 226 49q39 0 74.5 -7.5t57.5 -18t38 -21t23 -17.5l7 -8q25 -54 25 -131q0 -120 -72.5 -191t-193.5 -71q-39 0 -67 2q-3 -165 -3 -182l18 -95l-75 -20h-40zM264 690q-60 0 -99 -11l9 -44q-5 -236 -5 -254q32 -2 47 -2q106 0 151 29
q34 54 34 140q0 58 -33 100t-104 42z" />
    <glyph glyph-name="Q" unicode="Q" horiz-adv-x="589" 
d="M40 321q0 439 287 439q34 0 65.5 -7.5t52 -18t36 -21t22.5 -17.5l7 -8q39 -84 39 -259q0 -400 -232 -435q7 -88 31 -132q19 -11 96 -28l25 -5l-9 -79h-46q-81 0 -126.5 44t-45.5 122q0 40 10 75q-50 2 -93.5 20t-61.5 35l-18 16q-39 84 -39 259zM135 386
q0 -182 34.5 -249t125.5 -67q32 0 66.5 16t50.5 36q17 28 29.5 96.5t12.5 140.5q0 181 -37 251t-128 70q-32 0 -64 -14.5t-48 -34.5q-17 -27 -29.5 -99.5t-12.5 -145.5z" />
    <glyph glyph-name="R" unicode="R" horiz-adv-x="593" 
d="M68 0l10 610l-28 101q112 49 226 49q67 0 120 -17t72 -33l20 -17q23 -50 23 -136q0 -74 -37.5 -133.5t-107.5 -85.5l128 -223l74 -104l-60 -11h-77l-158 312q-14 -1 -46 -1q-47 0 -59 1q-3 -184 -3 -197l18 -95l-75 -20h-40zM254 690q-54 0 -89 -11l9 -44
q-4 -239 -4 -254q30 -2 58 -2q100 0 149 44q14 18 24 53t10 72q0 61 -39 101.5t-118 40.5z" />
    <glyph glyph-name="S" unicode="S" horiz-adv-x="473" 
d="M25 70l30 52l183 -52q70 0 100 37q16 21 16 73q0 30 -12.5 54.5t-47.5 51.5l-235 183q-16 23 -16 74q0 107 66.5 162t177.5 55q64 0 120 -22v-58l-47 -35l-119 35q-51 0 -83 -29q-18 -36 -18 -64q0 -51 52 -92l235 -184q26 -33 26 -92q0 -100 -66 -164.5t-171 -64.5
q-56 0 -104 9t-68 19l-19 9v43z" />
    <glyph glyph-name="T" unicode="T" horiz-adv-x="469" 
d="M5 680v70h479l-10 -90l-187 13l3 -38l-9 -520l18 -95l-75 -20h-40l10 610l-14 57z" />
    <glyph glyph-name="U" unicode="U" horiz-adv-x="599" 
d="M69 86l9 524l-28 120l75 20h40l8 -115q-7 -425 -7 -440q0 -63 30 -93q31 -32 109 -32q43 0 77.5 10t47.5 20l13 11q9 487 9 499l-18 120l76 20h39l-11 -649q-2 -5 -7 -12t-24.5 -26.5t-43.5 -34t-66.5 -26.5t-92.5 -12t-92 10t-67.5 24t-43.5 28t-25 24z" />
    <glyph glyph-name="V" unicode="V" horiz-adv-x="609" 
d="M248 -10l-183 620l-50 120l79 20h36l182 -670h4l150 555l24 115h104l-47 -140l-169 -600l-70 -20h-60z" />
    <glyph glyph-name="W" unicode="W" horiz-adv-x="825" 
d="M140 0l-88 609l-32 121l69 20h45l86 -635h4l129 565l72 20h45l135 -585h4l84 521l13 114h99l-31 -140l-107 -590l-75 -20h-62l-125 566h-4l-129 -566h-132z" />
    <glyph glyph-name="X" unicode="X" horiz-adv-x="605" 
d="M15 0l95 141l143 247l-121 222l-87 120l79 20h40l145 -267h4l82 152l56 115h122l-95 -140l-117 -203l161 -292l73 -105l-80 -10h-40l-170 312h-4l-108 -197l-56 -115h-122z" />
    <glyph glyph-name="Y" unicode="Y" horiz-adv-x="531" 
d="M212 0l4 258l-145 352l-66 120l75 20h40l148 -379h4l109 264l40 115h110l-69 -140l-151 -352q-2 -124 -2 -143l18 -95l-75 -20h-40z" />
    <glyph glyph-name="Z" unicode="Z" horiz-adv-x="500" 
d="M10 0v70l365 604l-308 -14l-10 90h433v-70l-364 -605l333 15l10 -90h-459z" />
    <glyph glyph-name="bracketleft" unicode="[" horiz-adv-x="320" 
d="M29 -225l35 1010h252v-55l-159 -10l-31 -880l159 -10v-55h-256z" />
    <glyph glyph-name="backslash" unicode="\" horiz-adv-x="313" 
d="M250 118l78 -349h-51l-214 675l-78 349h51z" />
    <glyph glyph-name="bracketright" unicode="]" horiz-adv-x="320" 
d="M4 -225v55l159 10l31 880l-159 10v55h256l-35 -1010h-252z" />
    <glyph glyph-name="asciicircum" unicode="^" horiz-adv-x="518" 
d="M54 462l170 288l77 10l151 -298h-107l-89 225h-4l-121 -225h-77z" />
    <glyph glyph-name="underscore" unicode="_" horiz-adv-x="460" 
d="M15 -137v60l420 9l10 -69h-430z" />
    <glyph glyph-name="grave" unicode="`" horiz-adv-x="220" 
d="M121 571l-86 169l36 10h64l50 -156z" />
    <glyph glyph-name="a" unicode="a" horiz-adv-x="482" 
d="M30 179q0 331 274 331q46 0 80 -5t45 -10l11 -5l-10 -67l-77 -10q-35 27 -98 27q-30 0 -52.5 -6.5t-30.5 -13.5l-7 -6q-40 -58 -40 -192q0 -147 61 -147q102 90 151 282l99 -11q-4 -140 -4 -229l10 -107l-61 -10h-49q0 83 6.5 180.5t6.5 118.5l-5 1q-22 -105 -63 -188.5
t-95 -121.5q-41 0 -76 15t-55 39q-21 54 -21 135z" />
    <glyph glyph-name="b" unicode="b" horiz-adv-x="493" 
d="M59 0q-9 39 -9 159q0 40 10 208.5t10 305.5l-30 132l60 20h50l13 -165q0 -118 -17 -305.5t-17 -203.5l4 -1q15 128 63.5 222.5t109.5 137.5q40 0 72.5 -13.5t45.5 -26.5l13 -14q26 -60 26 -157q0 -145 -59 -227t-170 -82q-73 0 -127 34l-31 -24h-17zM150 113l2 -11
q2 -5 14.5 -14t39 -18.5t54.5 -9.5q21 0 40.5 5t28.5 11l9 5q35 63 35 190q0 150 -71 159q-61 -35 -96 -115.5t-56 -201.5z" />
    <glyph glyph-name="c" unicode="c" horiz-adv-x="399" 
d="M30 200q0 144 66 227t184 83q30 0 55.5 -5t36.5 -10l11 -5l-10 -67l-77 -10q-28 22 -72 22q-39 0 -65 -19q-35 -63 -35 -167q0 -45 4.5 -76t16 -58.5t35.5 -41.5t61 -14q52 0 121 31l22 -47q-68 -53 -164 -53q-110 0 -160 54q-30 52 -30 156z" />
    <glyph glyph-name="d" unicode="d" horiz-adv-x="502" 
d="M30 201q0 145 59 227t170 82q61 0 109 -25q4 64 4 188l-30 132l60 20h50l10 -165q0 -93 -5 -256.5t-5 -286.5l10 -107l-61 -10h-49q0 41 6.5 180.5t6.5 168.5l-5 1q-16 -129 -64.5 -223t-108.5 -137q-40 0 -72.5 13.5t-45.5 26.5l-13 14q-26 60 -26 157zM120 229
q0 -150 71 -159q61 35 96 116.5t56 203.5q-2 7 -14 17.5t-38 21.5t-56 11q-21 0 -41 -5t-30 -11l-9 -5q-35 -63 -35 -190z" />
    <glyph glyph-name="e" unicode="e" horiz-adv-x="417" 
d="M30 213q0 133 66 215t180 82q39 0 68 -10t39 -20l10 -10q9 -31 9 -70q0 -169 -249 -220l-25 -5q7 -57 33 -86.5t80 -29.5q29 0 121 33l22 -47q-60 -55 -159 -55q-58 0 -101.5 16t-63.5 38q-30 52 -30 169zM124 249q0 -24 1 -36q58 18 104.5 50t72.5 67q8 17 8 45
q0 11 -2 19t-8.5 18.5t-23 16.5t-42.5 6q-46 0 -75 -20q-35 -63 -35 -166z" />
    <glyph glyph-name="f" unicode="f" horiz-adv-x="344" 
d="M20 437v63h94q4 184 63 254.5t172 70.5q27 0 50.5 -3.5t34.5 -7.5l10 -4l-10 -67l-77 -10q-21 27 -57 27q-37 0 -55 -22q-33 -58 -33 -238h190l-10 -80l-181 10l-16 -730h-99q16 712 16 732z" />
    <glyph glyph-name="g" unicode="g" horiz-adv-x="491" 
d="M40 -208l77 10q36 -27 93 -27q16 0 32 3.5t24 7.5l9 4q41 52 68 217.5t27 341.5l-4 1q-16 -129 -64.5 -223t-108.5 -137q-40 0 -72.5 13.5t-45.5 26.5l-13 14q-26 60 -26 157q0 145 59 227t170 82q74 0 126 -35l32 25h17q11 -110 11 -216q0 -318 -56 -450
q-59 -139 -229 -139q-46 0 -80 5t-45 10l-11 5zM126 229q0 -150 71 -159q111 64 152 323q-3 6 -14.5 16t-37.5 20.5t-56 10.5q-21 0 -41 -5t-30 -11l-9 -5q-35 -63 -35 -190z" />
    <glyph glyph-name="h" unicode="h" horiz-adv-x="498" 
d="M55 0q0 134 10 344.5t10 328.5l-30 132l60 20h50l13 -165q0 -118 -17 -305.5t-17 -203.5l5 -1q17 134 72.5 232t123.5 128q87 0 123 -54l-10 -339l10 -107l-61 -10h-49q10 367 10 373q0 29 -11 41t-38 12q-62 -33 -101.5 -113.5t-52.5 -194.5v-30l10 -78l-50 -10h-60z
" />
    <glyph glyph-name="i" unicode="i" horiz-adv-x="205" 
d="M55 0l10 348l-20 132l60 20h50v-383l10 -107l-61 -10h-49zM70 631l-20 103l80 16h27q0 -58 -12 -110z" />
    <glyph glyph-name="j" unicode="j" horiz-adv-x="240" 
d="M5 -287l80 153l17 482l-20 132l64 20h46v-161l-13 -391q-6 -205 -135 -268zM113 631l-20 103l80 16h27q0 -58 -12 -110z" />
    <glyph glyph-name="k" unicode="k" horiz-adv-x="527" 
d="M55 0q0 134 10 344.5t10 328.5l-30 132l60 20h50l13 -165q0 -118 -17 -305.5t-17 -203.5l4 -1q19 136 88 247t142 138q38 0 66.5 -20t37.5 -39l9 -20q-4 -41 -24 -80.5t-45.5 -66t-50 -47.5t-41.5 -30l-17 -10l122 -127l97 -31v-54q-5 -7 -31 -13.5t-45 -6.5
q-63 0 -102 39q-19 19 -64.5 80.5t-81.5 92.5l6 33q40 17 74.5 37.5t69.5 58t35 75.5q0 30 -29 30q-58 0 -116.5 -102t-82.5 -220v-26l10 -78l-50 -10h-60z" />
    <glyph glyph-name="l" unicode="l" horiz-adv-x="215" 
d="M55 0l20 673l-30 132l60 20h50l10 -165q-10 -528 -10 -543l10 -107l-61 -10h-49z" />
    <glyph glyph-name="m" unicode="m" horiz-adv-x="766" 
d="M70 0l10 328l-50 152l60 20h50l25 -116q0 -46 -8 -125t-8 -108l5 -1q15 136 67 233.5t119 126.5q31 0 59.5 -14.5t44.5 -39.5q4 -16 4 -43q0 -22 -13 -121.5t-13 -140.5l5 -1q15 136 67 233.5t119 126.5q77 0 113 -54l-10 -339l10 -107l-61 -10h-49q10 368 10 373
q0 53 -39 53q-117 -64 -144 -304v-34l10 -78l-50 -10h-60q10 369 10 373q0 53 -39 53q-117 -64 -144 -304v-34l10 -78l-50 -10h-60z" />
    <glyph glyph-name="n" unicode="n" horiz-adv-x="513" 
d="M70 0l10 328l-50 152l60 20h50l25 -116q0 -46 -8 -125t-8 -108l5 -1q17 134 72.5 232t123.5 128q87 0 123 -54l-10 -339l10 -107l-61 -10h-49q10 366 10 373q0 29 -11 41t-38 12q-62 -33 -101.5 -113.5t-52.5 -194.5v-30l10 -78l-50 -10h-60z" />
    <glyph glyph-name="o" unicode="o" horiz-adv-x="468" 
d="M30 213q0 136 56.5 217t165.5 81q118 0 165 -60q26 -61 26 -164q0 -136 -56.5 -217t-165.5 -81q-63 0 -105 19t-60 41q-26 61 -26 164zM124 249q0 -99 27.5 -147t90.5 -48q51 0 78 22q29 52 29 174q0 99 -27.5 147t-90.5 48q-51 0 -78 -22q-29 -52 -29 -174z" />
    <glyph glyph-name="p" unicode="p" horiz-adv-x="508" 
d="M49 -300q0 83 10.5 301t10.5 347l-40 132l60 20h50l19 -126q-1 -45 -6 -119t-5 -104l5 -1q15 128 63.5 222.5t109.5 137.5q40 0 72.5 -13.5t45.5 -26.5l13 -14q26 -60 26 -157q0 -145 -59 -227t-170 -82q-58 0 -103 21q-2 -108 -2 -194l10 -107l-61 -10h-49zM169 110
q5 -13 35 -31.5t74 -18.5q21 0 41 5t29 11l10 5q35 63 35 190q0 150 -71 159q-61 -35 -96.5 -116.5t-56.5 -203.5z" />
    <glyph glyph-name="q" unicode="q" horiz-adv-x="483" 
d="M331 -300q0 75 3 160.5t7.5 165t8.5 138.5t8.5 118t5.5 67l-4 1q-16 -129 -64.5 -223t-108.5 -137q-40 0 -72.5 13.5t-45.5 26.5l-13 14q-26 60 -26 157q0 145 59 227t170 82q74 0 126 -35l32 25h17q9 -39 9 -159q0 -40 -6 -213.5t-6 -310.5l10 -107l-61 -10h-49z
M120 229q0 -150 71 -159q108 63 152 323q-2 5 -13.5 15t-38 21t-56.5 11q-21 0 -41 -5t-30 -11l-9 -5q-35 -63 -35 -190z" />
    <glyph glyph-name="r" unicode="r" horiz-adv-x="415" 
d="M70 0l10 328l-50 152l60 20h50l25 -116q0 -46 -8 -125t-8 -108l5 -1q15 129 63.5 225.5t112.5 134.5q60 0 100 -20l-10 -77l-72 -13q-18 6 -44 6q-51 -22 -87 -103.5t-47 -182.5v-32l10 -78l-50 -10h-60z" />
    <glyph glyph-name="s" unicode="s" horiz-adv-x="359" 
d="M30 92l47 10q49 -37 119 -37q41 0 63 11q4 5 4 37q0 31 -43 60l-173 121q-6 32 -6 63q0 64 48.5 108.5t120.5 44.5q32 0 60 -5t40 -10l11 -5l-10 -67l-77 -10q-31 22 -73 22q-24 0 -37 -9q-7 -8 -7 -36q0 -30 40 -57l170 -115q7 -31 7 -78q0 -65 -45 -107.5t-135 -42.5
q-37 0 -70.5 9t-48.5 17l-15 9z" />
    <glyph glyph-name="t" unicode="t" horiz-adv-x="381" 
d="M15 445v45l88 46l47 93h48q-3 -110 -3 -134l161 5l-10 -75l-152 9q-4 -220 -4 -302q0 -58 54 -58q20 6 45 25.5t40 35.5l15 16l27 -15q-57 -132 -158 -146q-84 0 -123 61l10 389z" />
    <glyph glyph-name="u" unicode="u" horiz-adv-x="509" 
d="M413 0h-47q0 103 9.5 217.5t9.5 131.5l-5 1q-17 -134 -72.5 -232t-123.5 -128q-87 0 -123 54l9 304l-40 132l60 20h60l17 -164q-6 -199 -6 -208q0 -54 49 -54q61 33 100.5 113t52.5 194q1 10 1 31l-5 73l55 15h50l-1 -383l11 -107z" />
    <glyph glyph-name="v" unicode="v" horiz-adv-x="477" 
d="M10 480l60 20h60q53 -304 99 -425h10q49 30 93 127q26 57 44.5 131t18.5 128q-15 19 -49 43t-60 38l-26 14l31 73h61q21 -14 33 -24t32 -33t30 -57.5t10 -78.5q0 -127 -50.5 -253.5t-141.5 -192.5q-41 0 -76 15t-55 39l-74 304z" />
    <glyph glyph-name="w" unicode="w" horiz-adv-x="697" 
d="M615 461q-15 19 -49 43t-60 38l-26 14l31 73h61q21 -14 33 -24t32 -33t30 -57.5t10 -78.5q0 -135 -50.5 -265.5t-126.5 -180.5q-76 0 -121 54q-33 77 -48 272l-7 3q-27 -249 -140 -329q-77 0 -113 54l-21 304l-40 132l60 20h60l17 -164l14 -204q1 -25 13 -41.5t26 -16.5
q39 22 74.5 137t35.5 244l55 15h40q2 -38 6 -95t21.5 -165.5t41.5 -134.5q47 39 91.5 153t49.5 233z" />
    <glyph glyph-name="x" unicode="x" horiz-adv-x="522" 
d="M10 0l200 250q-90 133 -119 162l-67 68l73 20h60l115 -188l76 103l39 85h105l-186 -227q73 -107 112 -155l89 -98l-66 -20h-72l-126 211l-80 -120l-43 -91h-110z" />
    <glyph glyph-name="y" unicode="y" horiz-adv-x="495" 
d="M51 44l9 304l-40 132l60 20h60l17 -164q0 -32 -3 -102t-3 -102q0 -58 49 -58q62 33 101.5 114t52.5 195l-9 102l55 15h50q5 -135 5 -216q0 -318 -56 -450q-59 -139 -229 -139q-46 0 -80 5t-45 10l-11 5l10 77l77 10q36 -27 93 -27q16 0 32 3.5t24 7.5l9 4q41 52 68 217.5
t27 341.5l-4 1q-17 -134 -72.5 -232t-123.5 -128q-87 0 -123 54z" />
    <glyph glyph-name="z" unicode="z" horiz-adv-x="415" 
d="M15 0v55l264 373v10l-218 -13l-10 75h344v-55l-262 -373v-11l236 14l10 -75h-364z" />
    <glyph glyph-name="braceleft" unicode="{" horiz-adv-x="403" 
d="M55 258v35q68 17 99 64q7 19 11 86l9 180q3 70 41.5 113.5t115.5 43.5q29 0 49 -5v-48l-34 -4q-50 -6 -70 -21q-12 -16 -14 -63l-7 -197q-2 -64 -33 -102t-77 -53v-4q38 -13 65 -43.5t36 -74.5q0 -11 -4.5 -118t-4.5 -128q0 -40 18 -60t60 -20h30v-64q-20 -5 -49 -5
q-105 0 -152 70q10 283 10 290q0 34 -9 58t-25.5 37.5t-30.5 20t-34 12.5z" />
    <glyph glyph-name="bar" unicode="|" horiz-adv-x="131" 
d="M20 -274l33 1003l-7 82l34 10h31l-33 -1006l7 -89h-65z" />
    <glyph glyph-name="braceright" unicode="}" horiz-adv-x="403" 
d="M23 -225v55h34q46 0 70 18q12 16 14 63l7 197q2 64 33 102t77 53v4q-38 13 -65 43.5t-36 74.5q0 11 4.5 118t4.5 128q0 40 -18 60t-60 20h-30v64q20 5 49 5q105 0 152 -70q-10 -283 -10 -290q0 -34 9 -58t25.5 -37.5t30.5 -20t34 -12.5v-35q-68 -17 -99 -64
q-7 -19 -11 -86l-9 -180q-3 -70 -41.5 -113.5t-115.5 -43.5q-29 0 -49 5z" />
    <glyph glyph-name="asciitilde" unicode="~" horiz-adv-x="520" 
d="M85 235l-16 16v34q64 59 110 70q38 0 100.5 -26.5t97.5 -26.5q20 0 39 9t28 17l10 9h4l26 -32q-42 -59 -103 -81q-44 0 -108.5 26t-91.5 26q-58 0 -92 -41h-4z" />
    <glyph glyph-name="uni00A0" unicode="&#xa0;" horiz-adv-x="300" 
 />
    <glyph glyph-name="sterling" unicode="&#xa3;" 
d="M205 650q-13 -24 -13 -58q0 -63 74 -169h162v-69l-127 -4q41 -58 51 -130q-27 -93 -63 -125l1 -4l224 -31l-9 -71l-304 21l-151 -34l-25 93l74 22q62 19 100 59t38 85q0 44 -46 112l-126 -3l-7 79h93q-25 38 -42 77q-6 30 -6 68q0 53 19.5 92t52.5 60t69 30.5t76 9.5
q85 0 141 -32v-58l-47 -35l-119 45q-54 0 -90 -30z" />
    <glyph glyph-name="currency" unicode="&#xa4;" 
d="M33 163l-10 79h70l1 63l-61 -2l-10 79h72l4 228l-28 101q113 49 226 49q39 0 74.5 -7.5t57.5 -18t38 -21t23 -17.5l7 -8q25 -54 25 -131q0 -133 -72 -194t-222 -61h-39q-1 -27 -1 -60h195v-70q-3 0 -32 -1t-77.5 -2t-87.5 -2v-52l18 -95l-75 -20h-40l2 164zM275 690
q-50 0 -89 -11l9 -44q-5 -236 -5 -254h57q96 0 141 29q34 54 34 138q0 57 -37.5 99.5t-109.5 42.5z" />
    <glyph glyph-name="section" unicode="&#xa7;" horiz-adv-x="524" 
d="M58 -32q0 53 25 95t60 64l27 -42q-19 -25 -19 -60q0 -114 107 -114q41 0 85 24q30 35 30 91q0 39 -16 94l-178 612l64 18h43l7 -40l174 -599q0 -151 -68 -221t-189 -70q-67 0 -117 22q-35 56 -35 126zM215 0l-7 40l-171 584q-6 30 -6 65q0 106 74 173.5t183 67.5
q70 0 120 -22q35 -56 35 -126q0 -53 -25 -95t-60 -64l-27 42q19 25 19 60q0 120 -109 120q-41 0 -85 -24q-30 -35 -30 -91q0 -39 16 -94l180 -618l-64 -18h-43z" />
    <glyph glyph-name="copyright" unicode="&#xa9;" horiz-adv-x="837" 
d="M137 340q0 -270 266 -270q77 0 137.5 19t91.5 46q73 97 73 275q0 269 -266 269q-78 0 -138.5 -18.5t-90.5 -45.5q-73 -97 -73 -275zM50 334q0 221 108.5 323t312.5 102q89 0 158.5 -27.5t109.5 -68.5q53 -78 53 -247q0 -426 -421 -426q-89 0 -158.5 28t-109.5 69
q-53 78 -53 247zM210 339q0 144 67 219t183 75q33 0 62.5 -5t42.5 -10l13 -5l-9 -67l-77 -10q-36 21 -80 21q-40 0 -65 -18q-50 -64 -50 -173q0 -86 30 -131t102 -45q58 0 129 31l21 -52q-30 -23 -78.5 -38t-92.5 -15q-106 0 -159 55q-39 56 -39 168z" />
    <glyph glyph-name="guillemotleft" unicode="&#xab;" horiz-adv-x="472" 
d="M187 10q-36 72 -79 129.5t-68 78.5l-25 22q7 17 20 45t62 97.5t107 118.5l41 -38q-46 -53 -75 -104t-36 -75l-6 -24q8 -7 21 -21.5t45.5 -72t55.5 -129.5zM384 10q-36 72 -79 129.5t-68 78.5l-25 22q7 17 20 45t62 97.5t107 118.5l41 -38q-46 -53 -75 -104t-35 -75
l-7 -24q8 -7 21 -21.5t45.5 -72t55.5 -129.5z" />
    <glyph glyph-name="logicalnot" unicode="&#xac;" horiz-adv-x="490" 
d="M38 392h428l-15 -226h-73v165l-330 -20z" />
    <glyph glyph-name="registered" unicode="&#xae;" horiz-adv-x="717" 
d="M50 390q-4 185 73.5 277.5t248.5 92.5q190 0 267 -80q33 -72 33 -180q0 -188 -77 -284t-245 -96q-190 0 -267 80q-33 72 -33 190zM300 278l-55 -10h-45l7 156q3 67 16 111.5t37.5 67.5t53.5 31.5t72 8.5q72 0 109 -33q15 -32 15 -69q0 -54 -25 -83t-74 -47l89 -79l61 -33
q26 83 26 171q0 126 -48 178t-169 52q-110 0 -174 -49q-61 -87 -61 -214q0 -141 47.5 -199t168.5 -58q100 0 165 45q-52 32 -105.5 86.5t-76.5 94.5l-39 6l-2 -56zM297 464h57q71 0 71 68q0 56 -61 56q-27 0 -48 -11q-19 -62 -19 -113z" />
    <glyph glyph-name="degree" unicode="&#xb0;" horiz-adv-x="420" 
d="M135 584q0 -65 15 -98.5t59 -33.5q37 0 65 22q19 31 19 88q0 65 -15 98.5t-59 33.5q-38 0 -65 -22q-19 -31 -19 -88zM50 562q0 87 49 142.5t124 55.5q86 0 135 -45q20 -55 20 -131q0 -87 -49.5 -142.5t-124.5 -55.5q-85 0 -134 45q-20 55 -20 131z" />
    <glyph glyph-name="plusminus" unicode="&#xb1;" horiz-adv-x="525" 
d="M55 19l-10 79h435v-70zM294 128h-80l5 146l-164 -3l-10 79h177l6 177l80 10l-6 -187h178v-70l-181 -4z" />
    <glyph glyph-name="acute" unicode="&#xb4;" horiz-adv-x="150" 
d="M150 740l-86 -169l-64 23l50 156h64z" />
    <glyph glyph-name="mu" unicode="&#xb5;" horiz-adv-x="554" 
d="M52 -300q0 83 10.5 302t10.5 352l-38 126l60 20h60l17 -164q-6 -121 -6 -161q0 -101 78 -101q52 16 94 104.5t55 202.5q1 10 1 31l-5 73l55 15h50q-1 -367 -1 -383l11 -107l-61 -10h-47q0 103 9.5 217.5t9.5 131.5l-5 1q-18 -149 -57.5 -238t-112.5 -122q-54 0 -86 26
l-5 -3v-196l13 -107l-61 -10h-49z" />
    <glyph glyph-name="mu" unicode="&#x3bc;" horiz-adv-x="554" 
d="M52 -300q0 83 10.5 302t10.5 352l-38 126l60 20h60l17 -164q-6 -121 -6 -161q0 -101 78 -101q52 16 94 104.5t55 202.5q1 10 1 31l-5 73l55 15h50q-1 -367 -1 -383l11 -107l-61 -10h-47q0 103 9.5 217.5t9.5 131.5l-5 1q-18 -149 -57.5 -238t-112.5 -122q-54 0 -86 26
l-5 -3v-196l13 -107l-61 -10h-49z" />
    <glyph glyph-name="paragraph" unicode="&#xb6;" horiz-adv-x="559" 
d="M554 750l-5 -59q-29 -27 -39.5 -77.5t-13.5 -132.5l-19 -535q-8 -256 -241 -256q-93 0 -146 20l10 77l77 10q20 -27 86 -27q52 0 81 15q32 47 32 169v35q-61 0 -157.5 16t-126.5 43q-4 56 -28 200t-24 236q0 128 61.5 202.5t198.5 74.5q189 0 254 -11z" />
    <glyph glyph-name="guillemotright" unicode="&#xbb;" horiz-adv-x="472" 
d="M222 473l63 27q36 -72 79 -129.5t68 -78.5l25 -22q-7 -17 -20 -45t-62 -97.5t-107 -118.5l-41 38q46 53 75 104t36 75l6 24q-8 7 -21 21.5t-45.5 72t-55.5 129.5zM25 473l63 27q36 -72 79 -129.5t68 -78.5l25 -22q-7 -17 -20 -45t-62 -97.5t-107 -118.5l-41 38
q46 53 75 104t35 75l7 24q-8 7 -21 21.5t-45.5 72t-55.5 129.5z" />
    <glyph glyph-name="Agrave" unicode="&#xc0;" horiz-adv-x="636" 
d="M15 0l49 117l204 629l120 14l187 -643l43 -97l-78 -20h-40l-61 230l-255 -20l-27 -93l-27 -107l-65 -10h-50zM209 300h213l-99 382h-4zM401 839l-44 -43l-196 174l16 10h102z" />
    <glyph glyph-name="Aacute" unicode="&#xc1;" horiz-adv-x="636" 
d="M15 0l49 117l204 629l120 14l187 -643l43 -97l-78 -20h-40l-61 230l-255 -20l-27 -93l-27 -107l-65 -10h-50zM209 300h213l-99 382h-4zM281 796l-44 43l122 141h102l16 -10z" />
    <glyph glyph-name="Egrave" unicode="&#xc8;" horiz-adv-x="496" 
d="M68 0l10 610l-28 120l76 20h332l-10 -90l-281 19l7 -44q-4 -187 -4 -204h232l-10 -90l-223 20q-4 -230 -4 -246l5 -25l296 -20v-70h-398zM337 839l-44 -43l-196 174l16 10h102z" />
    <glyph glyph-name="Eacute" unicode="&#xc9;" horiz-adv-x="496" 
d="M68 0l10 610l-28 120l76 20h332l-10 -90l-281 19l7 -44q-4 -187 -4 -204h232l-10 -90l-223 20q-4 -230 -4 -246l5 -25l296 -20v-70h-398zM212 796l-44 43l122 141h102l16 -10z" />
    <glyph glyph-name="agrave" unicode="&#xe0;" horiz-adv-x="482" 
d="M30 179q0 331 274 331q46 0 80 -5t45 -10l11 -5l-10 -67l-77 -10q-35 27 -98 27q-30 0 -52.5 -6.5t-30.5 -13.5l-7 -6q-40 -58 -40 -192q0 -147 61 -147q102 90 151 282l99 -11q-4 -140 -4 -229l10 -107l-61 -10h-49q0 83 6.5 180.5t6.5 118.5l-5 1q-22 -105 -63 -188.5
t-95 -121.5q-41 0 -76 15t-55 39q-21 54 -21 135zM261 571l-86 169l36 10h64l50 -156z" />
    <glyph glyph-name="aacute" unicode="&#xe1;" horiz-adv-x="482" 
d="M30 179q0 331 274 331q46 0 80 -5t45 -10l11 -5l-10 -67l-77 -10q-35 27 -98 27q-30 0 -52.5 -6.5t-30.5 -13.5l-7 -6q-40 -58 -40 -192q0 -147 61 -147q102 90 151 282l99 -11q-4 -140 -4 -229l10 -107l-61 -10h-49q0 83 6.5 180.5t6.5 118.5l-5 1q-22 -105 -63 -188.5
t-95 -121.5q-41 0 -76 15t-55 39q-21 54 -21 135zM366 740l-86 -169l-64 23l50 156h64z" />
    <glyph glyph-name="egrave" unicode="&#xe8;" horiz-adv-x="417" 
d="M30 213q0 133 66 215t180 82q39 0 68 -10t39 -20l10 -10q9 -31 9 -70q0 -169 -249 -220l-25 -5q7 -57 33 -86.5t80 -29.5q29 0 121 33l22 -47q-60 -55 -159 -55q-58 0 -101.5 16t-63.5 38q-30 52 -30 169zM124 249q0 -24 1 -36q58 18 104.5 50t72.5 67q8 17 8 45
q0 11 -2 19t-8.5 18.5t-23 16.5t-42.5 6q-46 0 -75 -20q-35 -63 -35 -166zM219 571l-86 169l36 10h64l50 -156z" />
    <glyph glyph-name="eacute" unicode="&#xe9;" horiz-adv-x="417" 
d="M30 213q0 133 66 215t180 82q39 0 68 -10t39 -20l10 -10q9 -31 9 -70q0 -169 -249 -220l-25 -5q7 -57 33 -86.5t80 -29.5q29 0 121 33l22 -47q-60 -55 -159 -55q-58 0 -101.5 16t-63.5 38q-30 52 -30 169zM124 249q0 -24 1 -36q58 18 104.5 50t72.5 67q8 17 8 45
q0 11 -2 19t-8.5 18.5t-23 16.5t-42.5 6q-46 0 -75 -20q-35 -63 -35 -166zM350 740l-86 -169l-64 23l50 156h64z" />
    <glyph glyph-name="divide" unicode="&#xf7;" horiz-adv-x="530" 
d="M55 237l-10 79h440v-70zM207 382l-15 128l85 20h65v-21q0 -73 -14 -127h-121zM201 25l-15 128l85 20h65v-21q0 -73 -14 -127h-121z" />
    <glyph glyph-name="florin" unicode="&#x192;" horiz-adv-x="414" 
d="M70 437v63h102q14 184 78.5 254.5t178.5 70.5q27 0 50.5 -3.5t34.5 -7.5l10 -4l-10 -67l-77 -10q-20 26 -56 26q-30 0 -50 -15q-47 -78 -59 -244h180l-10 -80l-175 10l-35 -430q-14 -166 -73.5 -233t-173.5 -67q-27 0 -50.5 4t-34.5 8l-10 3l10 67l77 10q21 -27 57 -27
q33 0 55 22q29 56 42 213l35 432z" />
    <glyph glyph-name="Delta" unicode="&#x394;" horiz-adv-x="674" 
d="M25 0v22l267 728h96l266 -728v-22h-629zM123 80l392 -5l-156 444l-38 139h-4l-38 -139z" />
    <glyph glyph-name="Delta" unicode="&#x2206;" horiz-adv-x="674" 
d="M25 0v22l267 728h96l266 -728v-22h-629zM123 80l392 -5l-156 444l-38 139h-4l-38 -139z" />
    <glyph glyph-name="afii10023" unicode="&#x401;" horiz-adv-x="496" 
d="M147 861l-20 103l80 16h27q0 -58 -12 -110zM323 861l-20 103l80 16h27q0 -58 -12 -110zM68 0l10 610l-28 120l76 20h332l-10 -90l-281 19l7 -44q-4 -187 -4 -204h232l-10 -90l-223 20q-4 -230 -4 -246l5 -25l296 -20v-70h-398z" />
    <glyph glyph-name="afii10051" unicode="&#x402;" horiz-adv-x="648" 
d="M175 0q10 589 10 610l-14 57l-155 13v70h469l-10 -90l-197 13l3 -38l-4 -212q61 21 145 21q45 0 90 -10.5t64 -26.5q17 -19 32.5 -71t15.5 -108q0 -39 -6.5 -74t-24.5 -72.5t-47 -66t-77 -48.5t-111 -25l-15 58l158 65q30 48 30 147q0 26 -5.5 48.5t-19.5 48t-45 40.5
t-75 15q-50 0 -110 -12q-4 -207 -4 -237l18 -95l-75 -20h-40z" />
    <glyph glyph-name="afii10052" unicode="&#x403;" horiz-adv-x="433" 
d="M225 796l-44 43l122 141h102l16 -10zM58 0l10 610l-28 120l76 20h312l-10 -90l-261 19l7 -44q-9 -499 -9 -520l18 -95l-75 -20h-40z" />
    <glyph glyph-name="afii10053" unicode="&#x404;" horiz-adv-x="502" 
d="M40 310q0 234 80 343q77 107 234 107q71 0 123 -22v-58l-47 -35l-129 35q-67 0 -107 -48q-21 -30 -37.5 -85t-20.5 -119h261l-10 -90l-252 19q0 -159 43 -219q46 -63 134 -63l142 21l18 -64q-72 -42 -179 -42q-41 0 -78.5 7.5t-61 18.5t-41.5 22t-26 18l-8 8
q-38 82 -38 246z" />
    <glyph glyph-name="afii10054" unicode="&#x405;" horiz-adv-x="473" 
d="M25 70l30 52l183 -52q52 0 95 37q11 21 11 62q0 40 -10 65t-45 52l-235 183q-6 23 -6 65q0 113 64 169.5t175 56.5q64 0 120 -22v-58l-47 -35l-119 35q-38 0 -77 -29q-13 -26 -13 -64q0 -55 46 -92l235 -184q16 -33 16 -92q0 -100 -64 -164.5t-168 -64.5q-56 0 -104 9
t-68 19l-19 9v43z" />
    <glyph glyph-name="afii10055" unicode="&#x406;" horiz-adv-x="289" 
d="M101 0l10 610l8 55l-109 26l5 59h209l-17 -115q-9 -500 -9 -520l18 -95l-75 -20h-40z" />
    <glyph glyph-name="afii10056" unicode="&#x407;" horiz-adv-x="353" 
d="M105 0l10 610l8 55l-109 26l5 59h209l-17 -115q-9 -508 -9 -520l18 -95l-75 -20h-40zM206 861l-20 103l80 16h27q0 -58 -12 -110zM30 861l-20 103l80 16h27q0 -58 -12 -110z" />
    <glyph glyph-name="afii10057" unicode="&#x408;" horiz-adv-x="296" 
d="M5 26l39 25q31 20 45.5 35t20.5 40q8 463 8 484l8 55l-109 26l5 59h209l-17 -115l-8 -432q-1 -41 -5.5 -69t-17.5 -60.5t-42 -56t-73 -38.5l-39 -13z" />
    <glyph glyph-name="afii10058" unicode="&#x409;" horiz-adv-x="895" 
d="M36 0l-31 66l82 52q61 64 96 202t55 340v90h315l-2 -309q76 8 114 8q51 0 91.5 -8.5t55.5 -17.5l16 -9q22 -20 39.5 -66t17.5 -113q0 -45 -13 -85t-42 -77.5t-86 -60t-136 -22.5q-33 0 -73 4t-63 8l-24 3q13 594 13 605l-5 70l-138 -13q-6 -75 -10 -122t-12.5 -116
t-18 -115t-25 -100.5t-34 -91.5t-45.5 -70t-59 -52h-78zM545 115l6 -31q36 -14 96 -14q68 0 110 40q27 43 27 115q0 71 -40.5 107.5t-137.5 36.5l-57 -5q-4 -237 -4 -249z" />
    <glyph glyph-name="afii10059" unicode="&#x40a;" horiz-adv-x="878" 
d="M68 0l10 610l-28 120l76 20h40l8 -115q-4 -205 -4 -219h267q4 181 4 194l-18 120l76 20h40q-5 -298 -5 -309q76 8 114 8q51 0 91.5 -8.5t56.5 -17.5l15 -9q22 -20 39.5 -66t17.5 -113q0 -45 -13 -85t-42 -77.5t-86 -60t-136 -22.5q-33 0 -73 4t-64 8l-23 3q5 332 5 341
l-268 -18q-3 -198 -3 -213l18 -95l-75 -20h-40zM528 115l6 -31q36 -14 96 -14q68 0 110 40q27 43 27 115q0 71 -40.5 107.5t-137.5 36.5l-57 -5q-4 -239 -4 -249z" />
    <glyph glyph-name="afii10060" unicode="&#x40b;" horiz-adv-x="698" 
d="M173 0l10 610l-14 57l-155 13v70h459l-10 -90l-187 13l3 -38l-11 -326l-19 -156l5 -1q23 110 96 191t150 115q97 0 133 -54l-9 -287l10 -107l-61 -10h-49q9 313 9 319q0 55 -59 55q-59 -26 -119.5 -91.5t-84.5 -162.5v-5l18 -95l-75 -20h-40z" />
    <glyph glyph-name="afii10061" unicode="&#x40c;" horiz-adv-x="550" 
d="M312 796l-44 43l122 141h102l16 -10zM68 0l10 610l-28 120l76 20h40l8 -115q-4 -205 -4 -219h76l136 219l58 115h120l-104 -140l-149 -225l177 -270l77 -94l-63 -21h-77l-187 334l-66 -6q-3 -201 -3 -213l18 -95l-75 -20h-40z" />
    <glyph glyph-name="afii10062" unicode="&#x40e;" horiz-adv-x="576" 
d="M137 920l46 75q23 -16 62 -29t68 -13q75 0 135 43l28 -35q-22 -32 -74 -66t-97 -44q-94 0 -168 69zM92 44l119 44q14 10 27.5 29.5t16.5 38.5l-235 574l79 20h44l30 -114l135 -374h4l119 373l31 115h104l-54 -140l-120 -348q-51 -147 -104 -212t-134 -65q-14 0 -28 2.5
t-21 4.5l-7 3z" />
    <glyph glyph-name="afii10145" unicode="&#x40f;" horiz-adv-x="601" 
d="M68 0l10 610l-28 120l76 20h40l8 -115q-9 -503 -9 -520l5 -30l272 -15q9 526 9 540l-18 120l76 20h40l-11 -635l18 -95l-75 -20h-115l-21 -205h-90v205h-187z" />
    <glyph glyph-name="afii10017" unicode="&#x410;" horiz-adv-x="636" 
d="M15 0l49 117l204 629l120 14l187 -643l43 -97l-78 -20h-40l-61 230l-255 -20l-27 -93l-27 -107l-65 -10h-50zM209 300h213l-99 382h-4z" />
    <glyph glyph-name="afii10018" unicode="&#x411;" horiz-adv-x="535" 
d="M68 5l10 605l-28 120l76 20h352l-10 -90l-301 19l7 -44q-3 -178 -3 -194q76 8 124 8q51 0 91.5 -8.5t55.5 -17.5l16 -9q22 -20 39.5 -66t17.5 -113q0 -44 -14.5 -84.5t-45.5 -78t-89.5 -60t-137.5 -22.5q-33 0 -73 4t-63 8zM165 115l6 -31q36 -14 106 -14q63 0 105 40
q27 43 27 115t-38.5 108t-134.5 36l-67 -5q-4 -234 -4 -249z" />
    <glyph glyph-name="afii10019" unicode="&#x412;" horiz-adv-x="566" 
d="M68 5l10 605l-28 101q111 49 225 49q46 0 84 -8t59 -19t36 -22.5t20 -19.5l5 -8q19 -41 19 -95q0 -50 -25.5 -98t-75.5 -80q47 -9 79 -27q24 -16 42 -59t18 -94q0 -106 -73 -173t-235 -67q-33 0 -73 4t-63 8zM169 361l-4 -246l6 -31q34 -14 108 -14q38 0 74.5 13t57.5 32
q27 45 27 105q0 55 -35.5 91t-104.5 41zM174 635l-4 -209h91q40 0 69 14t43.5 37t20.5 46.5t6 49.5q0 48 -37.5 80t-101.5 32q-48 0 -95 -7z" />
    <glyph glyph-name="afii10020" unicode="&#x413;" horiz-adv-x="433" 
d="M58 0l10 610l-28 120l76 20h312l-10 -90l-261 19l7 -44q-9 -499 -9 -520l18 -95l-75 -20h-40z" />
    <glyph glyph-name="afii10021" unicode="&#x414;" horiz-adv-x="681" 
d="M5 -205v290l88 13q68 79 98 217t43 345v90h338l-11 -635l5 -27l105 -5l-29 -288h-80v220l-58 -15h-398l-21 -205h-80zM156 80l309 -10q9 518 9 540l-5 70l-155 -13q-11 -198 -51 -354.5t-107 -232.5z" />
    <glyph glyph-name="afii10022" unicode="&#x415;" horiz-adv-x="496" 
d="M68 0l10 610l-28 120l76 20h332l-10 -90l-281 19l7 -44q-4 -187 -4 -204h232l-10 -90l-223 20q-4 -230 -4 -246l5 -25l296 -20v-70h-398z" />
    <glyph glyph-name="afii10024" unicode="&#x416;" horiz-adv-x="864" 
d="M383 0l5 327l-80 -6l-167 -321h-136l78 115l159 262l-136 228l-86 135l121 10l53 -120l117 -219h79q3 175 3 199l-18 120l71 20h45q-6 -328 -6 -339h80l118 224l49 115h127l-93 -140l-131 -222l159 -273l64 -95l-77 -20h-45l-176 329l-77 -5q-3 -191 -3 -209l8 -115h-105
z" />
    <glyph glyph-name="afii10025" unicode="&#x417;" horiz-adv-x="493" 
d="M5 70l32 52l159 -52q96 0 143 37q24 33 24 111q0 57 -31 91.5t-108 45.5l-88 -11l-10 90h38q82 0 118 18q20 13 35.5 47t15.5 73q0 49 -26.5 78.5t-73.5 29.5l-160 -42l-27 66q107 56 207 56q48 0 89.5 -17t58.5 -33l17 -17q20 -37 20 -100q0 -47 -25 -95.5t-72 -80.5
q25 -5 45 -12t28 -11l7 -5q17 -17 32 -58.5t15 -96.5q0 -106 -73 -175t-190 -69q-62 0 -112 9t-69 19l-19 9v43z" />
    <glyph glyph-name="afii10026" unicode="&#x418;" horiz-adv-x="631" 
d="M68 0l10 610l-28 120l76 20h40l8 -115q-12 -485 -12 -503l3 -1l288 599l76 20h50q-11 -611 -11 -635l18 -95l-75 -20h-40q13 606 13 619l-3 1l-288 -600l-75 -20h-50z" />
    <glyph glyph-name="afii10027" unicode="&#x419;" horiz-adv-x="631" 
d="M163 920l46 75q23 -16 62 -29t68 -13q75 0 135 43l28 -35q-22 -32 -74 -66t-97 -44q-94 0 -168 69zM68 0l10 610l-28 120l76 20h40l8 -115q-12 -485 -12 -503l3 -1l288 599l76 20h50q-11 -611 -11 -635l18 -95l-75 -20h-40q13 606 13 619l-3 1l-288 -600l-75 -20h-50z
" />
    <glyph glyph-name="afii10028" unicode="&#x41a;" horiz-adv-x="566" 
d="M68 0l10 610l-28 120l76 20h40l8 -115q-4 -205 -4 -219h76l136 219l58 115h120l-104 -140l-149 -225l177 -270l77 -94l-63 -21h-77l-187 334l-66 -6q-3 -201 -3 -213l18 -95l-75 -20h-40z" />
    <glyph glyph-name="afii10029" unicode="&#x41b;" horiz-adv-x="623" 
d="M468 0l15 610l-5 70l-160 -13q-8 -123 -18 -206t-31.5 -187t-60.5 -173t-94 -101h-78l-31 66l82 52q61 64 96 202t55 340v90h335q0 -9 -4 -315t-4 -320l18 -95l-75 -20h-40z" />
    <glyph glyph-name="afii10030" unicode="&#x41c;" horiz-adv-x="801" 
d="M50 0l30 730l116 20l200 -585h4l12 40l183 525l76 20h53q9 -616 9 -635l18 -95l-75 -20h-40q-3 609 -3 626h-4l-32 -116l-154 -440h-116l-150 458l-17 94h-4q-19 -483 -19 -507l18 -105l-55 -10h-50z" />
    <glyph glyph-name="afii10031" unicode="&#x41d;" horiz-adv-x="611" 
d="M68 0l10 610l-28 120l76 20h40l8 -115q-4 -198 -4 -219h287q4 179 4 194l-18 120l76 20h40q-11 -615 -11 -635l18 -95l-75 -20h-40q5 333 5 346l-288 -18q-3 -197 -3 -213l18 -95l-75 -20h-40z" />
    <glyph glyph-name="afii10032" unicode="&#x41e;" horiz-adv-x="589" 
d="M40 321q0 439 287 439q34 0 65.5 -7.5t52 -18t36 -21t22.5 -17.5l7 -8q39 -84 39 -259q0 -221 -69 -330t-213 -109q-54 0 -101 18t-67 36l-20 18q-39 84 -39 259zM135 386q0 -182 34.5 -249t125.5 -67q32 0 66.5 16t50.5 36q17 28 29.5 96.5t12.5 140.5q0 181 -37 251
t-128 70q-32 0 -64 -14.5t-48 -34.5q-17 -27 -29.5 -99.5t-12.5 -145.5z" />
    <glyph glyph-name="afii10033" unicode="&#x41f;" horiz-adv-x="611" 
d="M68 0l10 610l-28 120l76 20h433q-11 -610 -11 -635l18 -95l-75 -20h-40q10 586 10 610l-5 70l-286 -20l4 -25q-9 -496 -9 -520l18 -95l-75 -20h-40z" />
    <glyph glyph-name="afii10034" unicode="&#x420;" horiz-adv-x="526" 
d="M68 0l10 610l-28 101q113 49 226 49q39 0 74.5 -7.5t57.5 -18t38 -21t23 -17.5l7 -8q25 -54 25 -131q0 -120 -72.5 -191t-193.5 -71q-39 0 -67 2q-3 -165 -3 -182l18 -95l-75 -20h-40zM264 690q-60 0 -99 -11l9 -44q-5 -236 -5 -254q32 -2 47 -2q106 0 151 29
q34 54 34 140q0 58 -33 100t-104 42z" />
    <glyph glyph-name="afii10035" unicode="&#x421;" horiz-adv-x="497" 
d="M40 310q0 234 80 343q77 107 234 107q71 0 123 -22v-58l-47 -35l-129 35q-67 0 -107 -48q-25 -35 -42 -108.5t-17 -157.5q0 -167 43 -228q46 -63 134 -63l142 21l18 -64q-72 -42 -179 -42q-41 0 -78.5 7.5t-61 18.5t-41.5 22t-26 18l-8 8q-38 82 -38 246z" />
    <glyph glyph-name="afii10036" unicode="&#x422;" horiz-adv-x="519" 
d="M20 680v70h479l-10 -90l-187 13l3 -38l-9 -520l18 -95l-75 -20h-40l10 610l-14 57z" />
    <glyph glyph-name="afii10037" unicode="&#x423;" horiz-adv-x="576" 
d="M92 44l119 44q14 10 27.5 29.5t16.5 38.5l-235 574l79 20h44l30 -114l135 -374h4l119 373l31 115h104l-54 -140l-120 -348q-51 -147 -104 -212t-134 -65q-14 0 -28 2.5t-21 4.5l-7 3z" />
    <glyph glyph-name="afii10038" unicode="&#x424;" horiz-adv-x="741" 
d="M320 -20l3 150l-101 -20q-54 0 -100 13t-64 26l-19 13q-39 84 -39 209q0 163 71 246t189 83l67 -22l-14 112l76 20h34l4 -131l102 21q54 0 98.5 -13t62.5 -26l17 -13q39 -85 39 -209q0 -161 -68 -245t-174 -84l-86 20l-1 -35l18 -95l-75 -20h-40zM97 406
q0 -121 33.5 -168.5t110.5 -47.5h82q7 403 7 420l-86 10q-70 0 -102 -24q-20 -30 -32.5 -83.5t-12.5 -106.5zM491 620l-68 -10q-8 -399 -8 -420h82q29 0 60.5 8t46.5 19q45 80 45 192q0 122 -33.5 166.5t-124.5 44.5z" />
    <glyph glyph-name="afii10039" unicode="&#x425;" horiz-adv-x="605" 
d="M15 0l95 141l143 247l-121 222l-87 120l79 20h40l145 -267h4l82 152l56 115h122l-95 -140l-117 -203l161 -292l73 -105l-80 -10h-40l-170 312h-4l-108 -197l-56 -115h-122z" />
    <glyph glyph-name="afii10040" unicode="&#x426;" horiz-adv-x="658" 
d="M68 0l10 610l-28 120l76 20h40l8 -115q-9 -500 -9 -520l5 -30l272 -15q9 520 9 540l-18 120l76 20h40q-11 -617 -11 -635l6 -36l104 -5l-30 -279h-80v220l-57 -15h-413z" />
    <glyph glyph-name="afii10041" unicode="&#x427;" horiz-adv-x="525" 
d="M360 0l6 356q-24 -24 -84.5 -48.5t-104.5 -24.5q-51 6 -90.5 36t-57.5 72l4 219l-28 120l76 20h40l8 -115q-3 -147 -3 -157q0 -110 112 -110q41 0 80 22t49 37q3 164 3 183l-18 120l76 20h40q-11 -614 -11 -635l18 -95l-75 -20h-40z" />
    <glyph glyph-name="afii10042" unicode="&#x428;" horiz-adv-x="874" 
d="M68 0l10 610l-28 120l76 20h40l8 -115q-9 -490 -9 -520l5 -30l222 -15q9 518 9 540l-18 120l76 20h40q-11 -608 -11 -635l5 -30l222 -15q9 521 9 540l-18 120l76 20h40q-11 -616 -11 -635l18 -95l-75 -20h-686z" />
    <glyph glyph-name="afii10043" unicode="&#x429;" horiz-adv-x="931" 
d="M68 0l10 610l-28 120l76 20h40l8 -115q-9 -500 -9 -520l5 -30l222 -15q9 521 9 540l-18 120l76 20h40q-11 -612 -11 -635l5 -30l222 -15q9 520 9 540l-18 120l76 20h40q-11 -610 -11 -635l6 -35l104 -5l-30 -279h-80v219l-57 -15h-686z" />
    <glyph glyph-name="afii10044" unicode="&#x42a;" horiz-adv-x="636" 
d="M5 680v70h282q-5 -291 -5 -309q76 8 124 8q51 0 91.5 -8.5t56.5 -17.5l15 -9q22 -20 39.5 -66t17.5 -113q0 -44 -14.5 -84.5t-45.5 -78t-89.5 -60t-137.5 -22.5q-33 0 -73 4t-64 8l-23 3q10 588 10 605l-8 50zM276 115l6 -31q36 -14 106 -14q68 0 110 40q27 43 27 115
q0 71 -40.5 107.5t-137.5 36.5l-67 -5q-4 -227 -4 -249z" />
    <glyph glyph-name="afii10045" unicode="&#x42b;" horiz-adv-x="784" 
d="M58 5l10 605l-28 120l76 20h40l8 -115q-3 -173 -3 -194q76 8 124 8q51 0 91.5 -8.5t55.5 -17.5l16 -9q22 -20 39.5 -66t17.5 -113q0 -44 -14.5 -84.5t-45.5 -78t-89.5 -60t-137.5 -22.5q-33 0 -73 4t-63 8zM629 0l10 610l-28 120l76 20h40l8 -115q-9 -499 -9 -520l18 -95
l-75 -20h-40zM155 115l6 -31q36 -14 106 -14q68 0 110 40q27 43 27 115q0 144 -188 144l-57 -5q-4 -231 -4 -249z" />
    <glyph glyph-name="afii10046" unicode="&#x42c;" horiz-adv-x="515" 
d="M58 5l10 605l-28 120l76 20h40l8 -115q-3 -181 -3 -194q76 8 124 8q51 0 91.5 -8.5t55.5 -17.5l16 -9q22 -20 39.5 -66t17.5 -113q0 -44 -14.5 -84.5t-45.5 -78t-89.5 -60t-137.5 -22.5q-33 0 -73 4t-63 8zM155 115l6 -31q36 -14 106 -14q68 0 110 40q27 43 27 115
q0 144 -188 144l-57 -5q-4 -235 -4 -249z" />
    <glyph glyph-name="afii10047" unicode="&#x42d;" horiz-adv-x="532" 
d="M25 70l32 52l169 -52q82 0 124 52q18 29 32.5 97.5t14.5 138.5l-241 -20l-10 90h250q-6 137 -39.5 194.5t-106.5 57.5l-160 -42l-27 66q107 56 207 56q34 0 65.5 -7.5t52 -18t36 -21t22.5 -17.5l7 -8q39 -84 39 -259q0 -221 -69 -330t-213 -109q-54 0 -100.5 9t-65.5 19
l-19 9v43z" />
    <glyph glyph-name="afii10048" unicode="&#x42e;" horiz-adv-x="853" 
d="M68 0l10 610l-28 120l76 20h40l8 -115q-4 -198 -4 -219h138q29 344 283 344q34 0 65.5 -7.5t52 -18t36 -21t22.5 -17.5l7 -8q39 -84 39 -259q0 -221 -69 -330t-213 -109q-54 0 -101 18t-67 36l-20 18q-39 84 -39 259v24l-135 -14q-4 -192 -4 -216l18 -95l-75 -20h-40z
M399 386q0 -182 34.5 -249t125.5 -67q32 0 66.5 16t50.5 36q17 28 29.5 96.5t12.5 140.5q0 181 -37 251t-128 70q-32 0 -64 -14.5t-48 -34.5q-17 -27 -29.5 -99.5t-12.5 -145.5z" />
    <glyph glyph-name="afii10049" unicode="&#x42f;" horiz-adv-x="575" 
d="M97 0l-92 20l82 95l133 208q-33 4 -67.5 21.5t-51.5 37.5q-17 42 -17 124q1 113 72 183.5t207 70.5q40 0 78.5 -4t57.5 -8l19 -3l-11 -630l18 -95l-75 -20h-40q5 317 5 335q-40 -15 -107 -15l-163 -320h-48zM182 531q0 -142 146 -142q46 0 88 6q4 196 4 210l-11 70
q-23 10 -71 10q-87 0 -133 -48q-23 -57 -23 -106z" />
    <glyph glyph-name="afii10065" unicode="&#x430;" horiz-adv-x="467" 
d="M30 179q0 331 274 331q46 0 80 -5t45 -10l11 -5l-10 -67l-77 -10q-35 27 -98 27q-30 0 -52.5 -6.5t-30.5 -13.5l-7 -6q-40 -58 -40 -192q0 -147 61 -147q102 90 151 282l99 -11q-4 -140 -4 -229l10 -107l-61 -10h-49q0 83 6.5 180.5t6.5 118.5l-5 1q-22 -105 -63 -188.5
t-95 -121.5q-41 0 -76 15t-55 39q-21 54 -21 135z" />
    <glyph glyph-name="afii10066" unicode="&#x431;" horiz-adv-x="480" 
d="M152 137q8 -37 35 -60t70 -23q52 0 79 22q29 52 29 212q0 137 -62 137q-38 -10 -90 -92t-61 -196zM40 293q0 422 333 457l55 10l39 51l38 -11q-1 -58 -26 -109q-29 -22 -154 -49q-145 -31 -185 -140q-25 -70 -25 -175q0 -95 11 -145h4q10 122 64 201.5t124 107.5
q77 0 118 -39q22 -55 23 -138q2 -154 -54.5 -239.5t-167.5 -85.5q-63 0 -105 19t-60 41q-32 92 -32 244z" />
    <glyph glyph-name="afii10067" unicode="&#x432;" horiz-adv-x="447" 
d="M30 213q0 133 66 215t180 82q39 0 68 -10t39 -20l10 -10q9 -21 9 -60q0 -41 -20.5 -76t-52.5 -54q40 -8 66.5 -40.5t26.5 -78.5q0 -66 -53 -118.5t-154 -52.5q-105 0 -155 54q-30 52 -30 169zM125 211q5 -85 34.5 -121t81.5 -36q39 0 63.5 21.5t24.5 60.5q0 83 -75 103
q-57 -21 -129 -28zM124 249q100 15 173 86q13 23 13 50q0 11 -2 19t-8 18.5t-21.5 16.5t-39.5 6q-48 0 -80 -30q-35 -63 -35 -166z" />
    <glyph glyph-name="afii10068" unicode="&#x433;" horiz-adv-x="368" 
d="M33 34q-8 22 -8 60q0 42 12 75l170 166q43 43 43 73q0 13 -11.5 25t-32.5 12q-24 0 -54.5 -7t-49.5 -14l-19 -7l-24 48q67 45 164 45q79 0 112 -29q13 -24 13 -60q0 -38 -15 -70t-58 -74l-102 -99q-48 -48 -48 -79q0 -21 16.5 -33t44.5 -12q24 0 56 9t52 18l20 9l25 -47
q-20 -20 -66 -36.5t-95 -16.5q-108 0 -145 44z" />
    <glyph glyph-name="afii10069" unicode="&#x434;" horiz-adv-x="491" 
d="M36 -93l171 106q-86 3 -140 41q-26 60 -26 152q0 144 57 224t162 80q74 0 126 -35l32 25h17q11 -110 11 -173q0 -314 -76 -493q-61 -144 -199 -144q-41 0 -76.5 9t-50.5 17l-14 9q-15 39 -15 82q0 22 5.5 47t10.5 39zM365 327q0 113 -106 113q-51 0 -93 -21
q-35 -63 -35 -185q0 -146 61 -164q51 0 98.5 42t71.5 107q3 54 3 108zM270 -210q30 39 53 137t34 222q-63 -135 -259 -288q-1 -5 -1 -13q0 -45 23.5 -61.5t74.5 -16.5q18 0 37 5t28 10z" />
    <glyph glyph-name="afii10070" unicode="&#x435;" horiz-adv-x="417" 
d="M30 213q0 133 66 215t180 82q39 0 68 -10t39 -20l10 -10q9 -31 9 -70q0 -169 -249 -220l-25 -5q7 -57 33 -86.5t80 -29.5q29 0 121 33l22 -47q-60 -55 -159 -55q-58 0 -101.5 16t-63.5 38q-30 52 -30 169zM124 249q0 -24 1 -36q58 18 104.5 50t72.5 67q8 17 8 45
q0 11 -2 19t-8.5 18.5t-23 16.5t-42.5 6q-46 0 -75 -20q-35 -63 -35 -166z" />
    <glyph glyph-name="afii10072" unicode="&#x436;" horiz-adv-x="825" 
d="M154 74q40 49 40 202q0 92 -13.5 130.5t-58.5 38.5q-34 0 -71 -15l-22 43q53 37 115 37q29 0 51.5 -9t33.5 -19t24 -26q27 -47 27 -135t-28 -157q98 127 117 228v20l-5 73l55 15h42q5 -58 5 -116q0 -28 -10.5 -114.5t-10.5 -118.5l7 -2q16 51 42.5 107t65 116t91 99
t106.5 39q22 0 37.5 -2.5t20.5 -5.5l5 -2l-10 -62l-57 -10q-10 17 -31 17t-41 -19q-40 -74 -40 -177q0 -110 17.5 -152t64.5 -42q27 0 61 21l22 -43q-58 -43 -105 -43q-45 0 -70.5 14.5t-48.5 39.5q-27 47 -27 130q0 89 28 162q-98 -125 -117 -228v-20l10 -78l-50 -10h-60
q0 103 12 217.5t12 131.5l-7 1q-13 -40 -31 -83t-47.5 -94t-62.5 -90.5t-76.5 -66t-87.5 -26.5q-22 0 -37.5 2.5t-20.5 5.5l-5 2l10 62l57 10q10 -17 31 -17t41 19z" />
    <glyph glyph-name="afii10073" unicode="&#x437;" horiz-adv-x="395" 
d="M32 44l24 47l132 -26q41 0 70 16q17 23 17 64q0 43 -22 63.5t-76 23.5l-50 -3l-7 61h86q50 20 50 85q0 60 -60 60q-26 0 -54.5 -6t-43.5 -12l-16 -6l-24 46q68 53 158 53q80 0 126 -44q14 -26 14 -60q-1 -82 -84 -125l-1 -4q58 -6 83 -30q16 -31 16 -70
q0 -78 -53.5 -132.5t-147.5 -54.5q-37 0 -72 4.5t-51 9.5l-16 4z" />
    <glyph glyph-name="afii10074" unicode="&#x438;" horiz-adv-x="509" 
d="M61 44l9 304l-40 132l60 20h60l17 -164q-6 -204 -6 -208q0 -54 49 -54q61 33 100.5 113t52.5 194q1 10 1 31l-5 73l55 15h50q-1 -372 -1 -383l11 -107l-61 -10h-47q0 103 9.5 217.5t9.5 131.5l-5 1q-17 -134 -72.5 -232t-123.5 -128q-87 0 -123 54z" />
    <glyph glyph-name="afii10075" unicode="&#x439;" horiz-adv-x="509" 
d="M61 44l9 304l-40 132l60 20h60l17 -164q-6 -204 -6 -208q0 -54 49 -54q61 33 100.5 113t52.5 194q1 10 1 31l-5 73l55 15h50q-1 -372 -1 -383l11 -107l-61 -10h-47q0 103 9.5 217.5t9.5 131.5l-5 1q-17 -134 -72.5 -232t-123.5 -128q-87 0 -123 54zM100 700l46 75
q23 -16 62 -29t68 -13q75 0 135 43l28 -35q-22 -32 -74 -66t-97 -44q-94 0 -168 69z" />
    <glyph glyph-name="afii10076" unicode="&#x43a;" horiz-adv-x="505" 
d="M70 0l10 328l-50 152l60 20h50l25 -116q0 -46 -8 -125t-8 -108l5 -1q18 122 86 219.5t140 140.5q60 0 100 -20l-10 -77l-72 -13q-18 6 -44 6q-58 -26 -111 -107q36 -29 93 -106t79 -94l85 -43l-13 -56q-26 -10 -66 -10q-34 0 -66.5 26.5t-54 59.5t-51.5 72t-55 57
q-16 -43 -24 -87v-30l10 -78l-50 -10h-60z" />
    <glyph glyph-name="afii10077" unicode="&#x43b;" horiz-adv-x="453" 
d="M255 520h55l88 -358l50 -142l-60 -20h-53l-35 106l-59 293l-5 1q-15 -148 -50.5 -260t-90.5 -150q-60 0 -100 20l19 89l77 -5q48 33 82.5 140.5t41.5 207.5v20l-15 48z" />
    <glyph glyph-name="afii10078" unicode="&#x43c;" horiz-adv-x="698" 
d="M595 510l48 -338l50 -152l-60 -20h-53l-35 116l-19 303l-5 1q-33 -339 -136 -410q-60 0 -100 20q-8 41 -15 100.5t-10.5 104t-8 106t-5.5 78.5l-5 1q-14 -144 -57 -268t-99 -162q-60 0 -100 20l19 89l77 -5q49 34 88.5 138.5t45.5 199.5v20l-15 48l55 10h60l53 -338
l19 -68q41 47 71.5 145t36.5 183v20l-5 48l55 10h50z" />
    <glyph glyph-name="afii10079" unicode="&#x43d;" horiz-adv-x="534" 
d="M70 0l10 348l-30 132l60 20h50l10 -165v-54h222q2 56 2 67l-20 132l60 20h50v-383l10 -107l-61 -10h-49q6 217 6 226l-220 -20v-89l10 -107l-61 -10h-49z" />
    <glyph glyph-name="afii10080" unicode="&#x43e;" horiz-adv-x="468" 
d="M30 213q0 136 56.5 217t165.5 81q118 0 165 -60q26 -61 26 -164q0 -136 -56.5 -217t-165.5 -81q-63 0 -105 19t-60 41q-26 61 -26 164zM124 249q0 -99 27.5 -147t90.5 -48q51 0 78 22q29 52 29 174q0 99 -27.5 147t-90.5 48q-51 0 -78 -22q-29 -52 -29 -174z" />
    <glyph glyph-name="afii10081" unicode="&#x43f;" horiz-adv-x="518" 
d="M70 0l10 328l-50 152l60 20h50l25 -116q0 -46 -8 -125t-8 -108l5 -1q17 134 72.5 232t123.5 128q87 0 123 -54l-10 -339l10 -107l-61 -10h-49q10 366 10 373q0 29 -11 41t-38 12q-62 -33 -101.5 -113.5t-52.5 -194.5v-30l10 -78l-50 -10h-60z" />
    <glyph glyph-name="afii10082" unicode="&#x440;" horiz-adv-x="508" 
d="M49 -300q0 83 10.5 301t10.5 347l-40 132l60 20h50l19 -126q-1 -45 -6 -119t-5 -104l5 -1q15 128 63.5 222.5t109.5 137.5q40 0 72.5 -13.5t45.5 -26.5l13 -14q26 -60 26 -157q0 -145 -59 -227t-170 -82q-58 0 -103 21q-2 -108 -2 -194l10 -107l-61 -10h-49zM169 110
q5 -13 35 -31.5t74 -18.5q21 0 41 5t29 11l10 5q35 63 35 190q0 150 -71 159q-61 -35 -96.5 -116.5t-56.5 -203.5z" />
    <glyph glyph-name="afii10083" unicode="&#x441;" horiz-adv-x="409" 
d="M30 200q0 144 66 227t184 83q30 0 55.5 -5t36.5 -10l11 -5l-10 -67l-77 -10q-28 22 -72 22q-39 0 -65 -19q-35 -63 -35 -167q0 -45 4.5 -76t16 -58.5t35.5 -41.5t61 -14q52 0 121 31l22 -47q-68 -53 -164 -53q-110 0 -160 54q-30 52 -30 156z" />
    <glyph glyph-name="afii10084" unicode="&#x442;" horiz-adv-x="771" 
d="M70 0l10 328l-50 152l60 20h50l25 -116q0 -46 -8 -125t-8 -108l5 -1q15 136 67 233.5t119 126.5q31 0 59.5 -14.5t44.5 -39.5q4 -16 4 -43q0 -22 -13 -121.5t-13 -140.5l5 -1q15 136 67 233.5t119 126.5q77 0 113 -54l-10 -339l10 -107l-61 -10h-49q10 368 10 373
q0 53 -39 53q-117 -64 -144 -304v-34l10 -78l-50 -10h-60q10 369 10 373q0 53 -39 53q-117 -64 -144 -304v-34l10 -78l-50 -10h-60z" />
    <glyph glyph-name="afii10085" unicode="&#x443;" horiz-adv-x="495" 
d="M51 44l9 304l-40 132l60 20h60l17 -164q0 -32 -3 -102t-3 -102q0 -58 49 -58q62 33 101.5 114t52.5 195l-9 102l55 15h50q5 -135 5 -216q0 -318 -56 -450q-59 -139 -229 -139q-46 0 -80 5t-45 10l-11 5l10 77l77 10q36 -27 93 -27q16 0 32 3.5t24 7.5l9 4q41 52 68 217.5
t27 341.5l-4 1q-17 -134 -72.5 -232t-123.5 -128q-87 0 -123 54z" />
    <glyph glyph-name="afii10086" unicode="&#x444;" horiz-adv-x="709" 
d="M581 96q29 52 29 160q0 98 -27.5 143.5t-90.5 45.5q-54 0 -85 -32q-6 -242 -6 -266q29 -73 112 -73q41 0 68 22zM305 106q7 232 7 258q-29 81 -111 81q-41 0 -68 -22q-29 -52 -29 -168q0 -91 27.5 -136t90.5 -45q24 0 49 9t34 23zM292 -300l10 358q-40 -33 -101 -49
q-63 0 -105 19t-60 41q-26 61 -26 150q0 132 57.5 212t154.5 80q53 0 94 -22q0 100 16 167.5t48 103.5t72 50.5t96 14.5q27 0 50.5 -3.5t33.5 -7.5l11 -4l-10 -67l-77 -10q-21 27 -57 27q-37 0 -55 -22q-36 -64 -36 -284q59 50 105 57q118 0 165 -60q26 -61 26 -158
q0 -131 -57 -207.5t-155 -76.5q-52 0 -94 22l-7 -331h-99z" />
    <glyph glyph-name="afii10087" unicode="&#x445;" horiz-adv-x="512" 
d="M10 0l200 250q-90 133 -119 162l-67 68l73 20h60l115 -188l76 103l39 85h105l-186 -227q73 -107 112 -155l89 -98l-66 -20h-72l-126 211l-80 -120l-43 -91h-110z" />
    <glyph glyph-name="afii10088" unicode="&#x446;" horiz-adv-x="568" 
d="M61 44l9 304l-40 132l60 20h50q27 -58 27 -164q0 -32 -3 -102t-3 -102q0 -58 49 -58q61 33 100.5 113t52.5 194q1 10 1 31l-5 78l50 10h55l-1 -383l6 -56l70 9h24l-25 -219h-75v157l-50 -8h-47q0 103 9.5 217.5t9.5 131.5l-5 1q-17 -134 -72.5 -232t-123.5 -128
q-87 0 -123 54z" />
    <glyph glyph-name="afii10089" unicode="&#x447;" horiz-adv-x="458" 
d="M36 203l1 180l-22 97l60 20h44q17 -34 17 -84q0 -15 -4 -63.5t-4 -61.5q0 -28 12.5 -45.5t37.5 -17.5q117 38 138 160l-9 98l56 14h50q5 -37 5 -100q0 -47 -2.5 -118t-5.5 -118l-2 -47l10 -107l-61 -10h-49q0 112 15 223t15 126l-9 2q-12 -55 -33.5 -94t-50 -60
t-49.5 -31t-49 -17q-75 0 -111 54z" />
    <glyph glyph-name="afii10090" unicode="&#x448;" horiz-adv-x="755" 
d="M54 44l16 304l-40 132l60 20h50q20 -23 20 -145q0 -29 -3 -117t-3 -106q0 -32 9 -45t30 -13q117 63 143 303q1 11 1 35l-10 78l50 10h60q-10 -327 -10 -368q0 -31 9 -44.5t30 -13.5q117 63 143 303q1 11 1 35l-10 78l50 10h60l-1 -383l11 -107l-61 -10h-47
q0 103 9.5 217.5t9.5 131.5l-5 1q-16 -136 -68 -233.5t-118 -126.5q-31 0 -59.5 14.5t-44.5 39.5q-4 16 -4 43q0 22 13 121.5t13 140.5l-5 1q-16 -136 -68 -233.5t-118 -126.5q-77 0 -113 54z" />
    <glyph glyph-name="afii10091" unicode="&#x449;" horiz-adv-x="814" 
d="M54 44l16 304l-40 132l60 20h50q20 -23 20 -145q0 -29 -3 -117t-3 -106q0 -32 9 -45t30 -13q117 63 143 303q1 11 1 35l-5 78l50 10h55q-10 -365 -10 -372q0 -54 39 -54q117 63 143 303q1 11 1 35l-5 78l50 10h55l-1 -383l6 -56l70 9h24l-25 -219h-75v157l-50 -8h-47
q0 103 9.5 217.5t9.5 131.5l-5 1q-16 -136 -68 -233.5t-118 -126.5q-31 0 -59.5 14.5t-44.5 39.5q-4 16 -4 43q0 22 13 121.5t13 140.5l-5 1q-16 -136 -68 -233.5t-118 -126.5q-77 0 -113 54z" />
    <glyph glyph-name="afii10092" unicode="&#x44a;" horiz-adv-x="493" 
d="M117 0l10 348l-13 86l-109 11v55h212v-271q19 44 54.5 85.5t66.5 58.5q71 0 118 -45q22 -37 22 -114q0 -99 -56.5 -161.5t-170.5 -62.5q-36 0 -69.5 2.5t-49.5 5.5zM217 117l4 -43q20 -20 62 -20q48 0 78 22q23 31 23 107q0 110 -65 110q-62 -21 -102 -108v-68z" />
    <glyph glyph-name="afii10093" unicode="&#x44b;" horiz-adv-x="604" 
d="M60 0l10 348l-30 132l60 20h50l10 -164v-107q19 44 54.5 85.5t66.5 58.5q71 0 118 -45q22 -37 22 -114q0 -99 -56.5 -161.5t-170.5 -62.5q-36 0 -69.5 2.5t-48.5 5.5zM464 0l10 348l-30 132l60 20h50l10 -165v-218l10 -107l-61 -10h-49zM157 117l4 -43q3 -3 10 -7
t22.5 -8.5t32.5 -4.5q48 0 78 22q23 31 23 107q0 110 -65 110q-66 -22 -105 -108v-68z" />
    <glyph glyph-name="afii10094" unicode="&#x44c;" horiz-adv-x="431" 
d="M65 0l10 348l-30 132l60 20h50l10 -164v-107q19 44 54.5 85.5t66.5 58.5q71 0 118 -45q22 -37 22 -114q0 -99 -56.5 -161.5t-170.5 -62.5q-36 0 -69.5 2.5t-49.5 5.5zM165 117l4 -43q20 -20 62 -20q48 0 78 22q23 31 23 107q0 110 -65 110q-62 -21 -102 -108v-68z" />
    <glyph glyph-name="afii10095" unicode="&#x44d;" horiz-adv-x="411" 
d="M22 44l24 47l132 -26q55 0 80 16q25 45 28 148l-180 -19l-10 75h190q-3 82 -29 116t-82 34q-26 0 -54.5 -6t-44.5 -12l-15 -6l-24 46q68 53 158 53q114 0 160 -59q26 -61 26 -164q0 -136 -56.5 -216.5t-165.5 -80.5q-37 0 -72 4.5t-51 9.5l-16 4z" />
    <glyph glyph-name="afii10096" unicode="&#x44e;" horiz-adv-x="709" 
d="M60 0l10 348l-30 132l60 20h50l10 -165v-54h110q13 107 68 168.5t150 61.5q118 0 165 -60q26 -61 26 -164q0 -136 -56.5 -217t-165.5 -81q-63 0 -105 19t-60 41q-26 61 -26 162l-106 14v-108l10 -107l-61 -10h-49zM360 249q0 -99 27.5 -147t90.5 -48q51 0 78 22
q29 52 29 174q0 99 -27.5 147t-90.5 48q-51 0 -78 -22q-29 -52 -29 -174z" />
    <glyph glyph-name="afii10097" unicode="&#x44f;" horiz-adv-x="455" 
d="M15 54l80 31l80 119q-41 0 -72 19q-26 41 -25 104q1 74 51.5 127.5t155.5 53.5q33 0 65.5 -4.5t48.5 -9.5l16 -4l-13 -373l10 -107l-61 -10h-49l15 255q-39 -24 -69.5 -69.5t-54 -92.5t-40.5 -64q-39 -39 -82 -39q-39 0 -51 10zM172 349q0 -50 20 -70q25 -25 62 -25
q26 13 62 23l6 71l11 88q-19 9 -64 9q-56 0 -81 -16q-16 -34 -16 -80z" />
    <glyph glyph-name="afii10071" unicode="&#x451;" horiz-adv-x="422" 
d="M132 631l-20 103l80 16h27q0 -58 -12 -110zM308 631l-20 103l80 16h27q0 -58 -12 -110zM30 213q0 133 66 215t180 82q39 0 68 -10t39 -20l10 -10q9 -31 9 -70q0 -169 -249 -220l-25 -5q7 -57 33 -86.5t80 -29.5q29 0 121 33l22 -47q-60 -55 -159 -55q-58 0 -101.5 16
t-63.5 38q-30 52 -30 169zM124 249q0 -24 1 -36q58 18 104.5 50t72.5 67q8 17 8 45q0 11 -2 19t-8.5 18.5t-23 16.5t-42.5 6q-46 0 -75 -20q-35 -63 -35 -166z" />
    <glyph glyph-name="afii10099" unicode="&#x452;" horiz-adv-x="563" 
d="M101 0q0 192 16 560l-86 5v45l90 36l-20 159l60 20h50l-7 -205l166 5l-10 -75l-156 9q-24 -307 -24 -408l5 -1q18 108 74 196.5t118 113.5q93 0 129 -54l-11 -431q-6 -221 -136 -295l-39 33l80 153q10 335 10 457q0 53 -59 53q-43 -12 -87 -84t-63 -174v-30l10 -78
l-50 -10h-60z" />
    <glyph glyph-name="afii10100" unicode="&#x453;" horiz-adv-x="378" 
d="M60 0l10 348l-20 132l60 20h263l-10 -75l-203 11v-319l10 -107l-61 -10h-49zM245 571l-64 23l50 156h64l36 -10z" />
    <glyph glyph-name="afii10101" unicode="&#x454;" horiz-adv-x="404" 
d="M30 200q0 144 66 227t184 83q30 0 55.5 -5t36.5 -10l11 -5l-10 -67l-77 -10q-28 22 -72 22q-39 0 -65 -19q-27 -48 -34 -126h207l-10 -75l-198 10q2 -81 26.5 -123.5t90.5 -42.5q52 0 121 31l22 -47q-68 -53 -164 -53q-110 0 -160 54q-30 52 -30 156z" />
    <glyph glyph-name="afii10102" unicode="&#x455;" horiz-adv-x="364" 
d="M33 92l47 10q49 -37 119 -37q41 0 63 11q4 5 4 37q0 31 -43 60l-173 121q-6 32 -6 63q0 64 48.5 108.5t120.5 44.5q32 0 60 -5t39 -10l12 -5l-10 -67l-77 -10q-31 22 -73 22q-24 0 -37 -9q-7 -8 -7 -36q0 -30 40 -57l170 -115q7 -31 7 -78q0 -65 -45 -107.5t-135 -42.5
q-37 0 -70.5 9t-48.5 17l-15 9z" />
    <glyph glyph-name="afii10103" unicode="&#x456;" horiz-adv-x="249" 
d="M83 0l10 348l7 72l-95 26l5 54h189l-16 -165v-218l10 -107l-61 -10h-49zM98 631l-20 103l80 16h27q0 -58 -12 -110z" />
    <glyph glyph-name="afii10104" unicode="&#x457;" horiz-adv-x="333" 
d="M104 0l10 348l7 72l-95 26l5 54h189l-16 -165v-218l10 -107l-61 -10h-49zM206 631l-20 103l80 16h27q0 -58 -12 -110zM30 631l-20 103l80 16h27q0 -58 -12 -110z" />
    <glyph glyph-name="afii10105" unicode="&#x458;" horiz-adv-x="268" 
d="M5 -287l80 153l17 482l7 72l-95 26l5 54h189l-16 -165l-13 -387q-8 -206 -135 -268zM113 631l-20 103l80 16h27q0 -58 -12 -110z" />
    <glyph glyph-name="afii10106" unicode="&#x459;" horiz-adv-x="698" 
d="M432 500v-271q19 44 54.5 85.5t66.5 58.5q71 0 118 -45q22 -37 22 -114q0 -99 -56.5 -161.5t-170.5 -62.5q-36 0 -69.5 2.5t-48.5 5.5l-16 2q10 330 10 348l-6 80l-103 10q-6 -63 -10 -99.5t-12.5 -94t-19.5 -92.5t-27 -73t-38.5 -59.5t-51.5 -29.5l-34 -9l-35 68l86 59
q59 61 77 337v55h264zM432 117l4 -43q20 -20 62 -20q48 0 78 22q23 31 23 107q0 110 -65 110q-62 -21 -102 -108v-68z" />
    <glyph glyph-name="afii10107" unicode="&#x45a;" horiz-adv-x="730" 
d="M464 500v-271q19 44 54.5 85.5t66.5 58.5q71 0 118 -45q22 -37 22 -114q0 -99 -56.5 -161.5t-170.5 -62.5q-36 0 -69.5 2.5t-48.5 5.5l-16 2q6 217 6 226l-210 -20v-89l10 -107l-61 -10h-49l10 348l-30 132l60 20h50l10 -165v-54h212q2 62 2 67l-20 132l60 20h50z
M464 117l4 -43q20 -20 62 -20q48 0 78 22q23 31 23 107q0 110 -65 110q-62 -21 -102 -108v-68z" />
    <glyph glyph-name="afii10108" unicode="&#x45b;" horiz-adv-x="563" 
d="M355 550l-156 9q-24 -307 -24 -408l5 -1q18 108 74 196.5t118 113.5q97 0 133 -54l-6 -189l10 -207l-61 -10h-49q6 317 6 323q0 53 -59 53q-43 -12 -87 -84t-63 -174v-30l10 -78l-50 -10h-60q0 192 16 560l-86 5v45l90 36l-20 159l60 20h50l-7 -205l166 5z" />
    <glyph glyph-name="afii10109" unicode="&#x45c;" horiz-adv-x="503" 
d="M290 571l-64 23l50 156h64l36 -10zM54 0l10 328l-50 152l60 20h50l25 -116q0 -46 -8 -125t-8 -108l5 -1q18 122 86 219.5t140 140.5q60 0 100 -20l-10 -77l-72 -13q-18 6 -44 6q-58 -26 -111 -107q36 -29 93 -106t79 -94l85 -43l-13 -56q-26 -10 -66 -10
q-34 0 -66.5 26.5t-54 59.5t-51.5 72t-55 57q-16 -43 -24 -87v-30l10 -78l-50 -10h-60z" />
    <glyph glyph-name="afii10110" unicode="&#x45e;" horiz-adv-x="495" 
d="M90 700l46 75q23 -16 62 -29t68 -13q75 0 135 43l28 -35q-22 -32 -74 -66t-97 -44q-94 0 -168 69zM51 44l9 304l-40 132l60 20h60l17 -164q0 -32 -3 -102t-3 -102q0 -58 49 -58q62 33 101.5 114t52.5 195l-9 102l55 15h50q5 -135 5 -216q0 -318 -56 -450
q-59 -139 -229 -139q-46 0 -80 5t-45 10l-11 5l10 77l77 10q36 -27 93 -27q16 0 32 3.5t24 7.5l9 4q41 52 68 217.5t27 341.5l-4 1q-17 -134 -72.5 -232t-123.5 -128q-87 0 -123 54z" />
    <glyph glyph-name="afii10193" unicode="&#x45f;" horiz-adv-x="504" 
d="M60 0l10 348l-30 132l60 20h50l10 -165v-218l4 -46l191 -14q9 279 9 291l-20 132l60 20h50v-383l10 -107l-61 -10h-92l-17 -149h-75v149h-159z" />
    <glyph glyph-name="afii10050" unicode="&#x490;" horiz-adv-x="455" 
d="M58 0l10 610l-28 120l76 20h220v164l76 16h38l-32 -270l-261 19l7 -44l-9 -520l18 -95l-75 -20h-40z" />
    <glyph glyph-name="afii10098" unicode="&#x491;" horiz-adv-x="398" 
d="M60 0l10 348l-20 132l60 20h189v124l60 15h34l-30 -214l-203 11v-319l10 -107l-61 -10h-49z" />
    <glyph glyph-name="endash" unicode="&#x2013;" horiz-adv-x="497" 
d="M35 316h430v-70l-420 -9z" />
    <glyph glyph-name="emdash" unicode="&#x2014;" horiz-adv-x="597" 
d="M35 316h530v-70l-520 -9z" />
    <glyph glyph-name="quoteleft" unicode="&#x2018;" horiz-adv-x="255" 
d="M60 526v21q0 92 28 171.5t56 100.5l36 -14v-141l15 -118l-85 -20h-50z" />
    <glyph glyph-name="quoteright" unicode="&#x2019;" horiz-adv-x="255" 
d="M75 647l-15 118l85 20h50v-21q0 -92 -28 -171.5t-56 -100.5l-36 14v141z" />
    <glyph glyph-name="quotedblleft" unicode="&#x201c;" horiz-adv-x="438" 
d="M363 664l15 -118l-85 -20h-50v21q0 92 28 171.5t56 100.5l36 -14v-141zM180 664l15 -118l-85 -20h-50v21q0 92 28 171.5t56 100.5l36 -14v-141z" />
    <glyph glyph-name="quotedblright" unicode="&#x201d;" horiz-adv-x="438" 
d="M75 647l-15 118l85 20h50v-21q0 -92 -28 -171.5t-56 -100.5l-36 14v141zM258 647l-15 118l85 20h50v-21q0 -92 -28 -171.5t-56 -100.5l-36 14v141z" />
    <glyph glyph-name="quotedblbase" unicode="&#x201e;" horiz-adv-x="438" 
d="M75 0l-15 118l85 20h50v-21q0 -92 -28 -171.5t-56 -100.5l-36 14v141zM258 0l-15 118l85 20h50v-21q0 -92 -28 -171.5t-56 -100.5l-36 14v141z" />
    <glyph glyph-name="dagger" unicode="&#x2020;" horiz-adv-x="480" 
d="M197 -300l-13 599l22 121l-154 -10l-6 100l162 -10l-11 250l63 10h53l-30 -260l160 10v-100l-162 12l18 -118l-47 -604h-55z" />
    <glyph glyph-name="bullet" unicode="&#x2022;" horiz-adv-x="420" 
d="M55 377q0 92 52.5 151.5t132.5 59.5q102 0 144 -58q21 -56 21 -130q0 -92 -53 -151.5t-133 -59.5q-100 0 -143 59q-21 56 -21 129z" />
    <glyph glyph-name="ellipsis" unicode="&#x2026;" horiz-adv-x="814" 
d="M75 -10l-15 128l85 20h65v-21q0 -73 -14 -127h-121zM347 -10l-15 128l85 20h65v-21q0 -73 -14 -127h-121zM619 -10l-15 128l85 20h65v-21q0 -73 -14 -127h-121z" />
    <glyph glyph-name="Euro" unicode="&#x20ac;" 
d="M15 269l-10 69h89q0 30 2 58l-65 -2l-10 69h83q17 118 70 190q40 56 92 81.5t132 25.5q61 0 113 -22v-58l-47 -35l-119 35q-57 0 -97 -48q-34 -47 -45 -169h231v-60l-238 -9v-56h213v-60l-206 -9q7 -98 41 -144t112 -50l132 21l18 -64q-72 -42 -169 -42q-41 0 -77.5 7.5
t-58.5 18.5t-38.5 22t-23.5 18l-7 8q-27 58 -38 207z" />
    <glyph glyph-name="uni20B4" unicode="&#x20b4;" 
d="M281 463l39 36q16 19 23 41.5t7.5 31t0.5 31.5q0 18 -22 41t-43 23q-35 0 -80 -8.5t-72 -17.5l-28 -9l-29 64q88 58 234 58q82 0 142 -55q8 -14 14.5 -43t6.5 -44q0 -34 -6.5 -53t-29.5 -49q-5 -6 -13 -13.5t-19.5 -17.5t-17.5 -16h101v-60l-258 -9l-100 2l-65 -2l-10 69
h225zM484 278l-236 -9h-12q-27 -31 -33.5 -54.5t-6.5 -60.5q0 -44 31 -62q8 -6 33 -10.5t39 -4.5l155 26l15 -59q-29 -22 -85 -38t-109 -16q-77 0 -113.5 16.5t-64.5 47.5q-11 31 -11 89q0 56 18 100l23 26h-67l-10 69h434v-60z" />
    <glyph glyph-name="uni20B6" unicode="&#x20b6;" 
d="M33 163l-10 79h70l1 63l-61 -2l-10 79h72l4 228l-28 101q113 49 226 49q39 0 74.5 -7.5t57.5 -18t38 -21t23 -17.5l7 -8q25 -54 25 -131q0 -133 -72 -194t-222 -61h-39q-1 -27 -1 -60h195v-70q-3 0 -32 -1t-77.5 -2t-87.5 -2v-52l18 -95l-75 -20h-40l2 164zM275 690
q-50 0 -89 -11l9 -44q-5 -236 -5 -254h57q96 0 141 29q34 54 34 138q0 57 -37.5 99.5t-109.5 42.5z" />
    <glyph glyph-name="uni20B7" unicode="&#x20b7;" 
d="M33 163l-10 79h70l1 63l-61 -2l-10 79h72l4 228l-28 101q113 49 226 49q39 0 74.5 -7.5t57.5 -18t38 -21t23 -17.5l7 -8q25 -54 25 -131q0 -133 -72 -194t-222 -61h-39q-1 -27 -1 -60h195v-70q-3 0 -32 -1t-77.5 -2t-87.5 -2v-52l18 -95l-75 -20h-40l2 164zM275 690
q-50 0 -89 -11l9 -44q-5 -236 -5 -254h57q96 0 141 29q34 54 34 138q0 57 -37.5 99.5t-109.5 42.5z" />
    <glyph glyph-name="uni20B9" unicode="&#x20b9;" 
d="M33 163l-10 79h70l1 63l-61 -2l-10 79h72l4 228l-28 101q113 49 226 49q39 0 74.5 -7.5t57.5 -18t38 -21t23 -17.5l7 -8q25 -54 25 -131q0 -133 -72 -194t-222 -61h-39q-1 -27 -1 -60h195v-70q-3 0 -32 -1t-77.5 -2t-87.5 -2v-52l18 -95l-75 -20h-40l2 164zM275 690
q-50 0 -89 -11l9 -44q-5 -236 -5 -254h57q96 0 141 29q34 54 34 138q0 57 -37.5 99.5t-109.5 42.5z" />
    <glyph glyph-name="uni20BA" unicode="&#x20ba;" 
d="M33 163l-10 79h70l1 63l-61 -2l-10 79h72l4 228l-28 101q113 49 226 49q39 0 74.5 -7.5t57.5 -18t38 -21t23 -17.5l7 -8q25 -54 25 -131q0 -133 -72 -194t-222 -61h-39q-1 -27 -1 -60h195v-70q-3 0 -32 -1t-77.5 -2t-87.5 -2v-52l18 -95l-75 -20h-40l2 164zM275 690
q-50 0 -89 -11l9 -44q-5 -236 -5 -254h57q96 0 141 29q34 54 34 138q0 57 -37.5 99.5t-109.5 42.5z" />
    <glyph glyph-name="uni20BB" unicode="&#x20bb;" 
d="M33 163l-10 79h70l1 63l-61 -2l-10 79h72l4 228l-28 101q113 49 226 49q39 0 74.5 -7.5t57.5 -18t38 -21t23 -17.5l7 -8q25 -54 25 -131q0 -133 -72 -194t-222 -61h-39q-1 -27 -1 -60h195v-70q-3 0 -32 -1t-77.5 -2t-87.5 -2v-52l18 -95l-75 -20h-40l2 164zM275 690
q-50 0 -89 -11l9 -44q-5 -236 -5 -254h57q96 0 141 29q34 54 34 138q0 57 -37.5 99.5t-109.5 42.5z" />
    <glyph glyph-name="uni20BC" unicode="&#x20bc;" 
d="M33 163l-10 79h70l1 63l-61 -2l-10 79h72l4 228l-28 101q113 49 226 49q39 0 74.5 -7.5t57.5 -18t38 -21t23 -17.5l7 -8q25 -54 25 -131q0 -133 -72 -194t-222 -61h-39q-1 -27 -1 -60h195v-70q-3 0 -32 -1t-77.5 -2t-87.5 -2v-52l18 -95l-75 -20h-40l2 164zM275 690
q-50 0 -89 -11l9 -44q-5 -236 -5 -254h57q96 0 141 29q34 54 34 138q0 57 -37.5 99.5t-109.5 42.5z" />
    <glyph glyph-name="uni20BD" unicode="&#x20bd;" 
d="M33 163l-10 79h70l1 63l-61 -2l-10 79h72l4 228l-28 101q113 49 226 49q39 0 74.5 -7.5t57.5 -18t38 -21t23 -17.5l7 -8q25 -54 25 -131q0 -133 -72 -194t-222 -61h-39q-1 -27 -1 -60h195v-70q-3 0 -32 -1t-77.5 -2t-87.5 -2v-52l18 -95l-75 -20h-40l2 164zM275 690
q-50 0 -89 -11l9 -44q-5 -236 -5 -254h57q96 0 141 29q34 54 34 138q0 57 -37.5 99.5t-109.5 42.5z" />
    <glyph glyph-name="uni20BE" unicode="&#x20be;" 
d="M33 163l-10 79h70l1 63l-61 -2l-10 79h72l4 228l-28 101q113 49 226 49q39 0 74.5 -7.5t57.5 -18t38 -21t23 -17.5l7 -8q25 -54 25 -131q0 -133 -72 -194t-222 -61h-39q-1 -27 -1 -60h195v-70q-3 0 -32 -1t-77.5 -2t-87.5 -2v-52l18 -95l-75 -20h-40l2 164zM275 690
q-50 0 -89 -11l9 -44q-5 -236 -5 -254h57q96 0 141 29q34 54 34 138q0 57 -37.5 99.5t-109.5 42.5z" />
    <glyph glyph-name="uni20C0" unicode="&#x20c0;" 
d="M33 163l-10 79h70l1 63l-61 -2l-10 79h72l4 228l-28 101q113 49 226 49q39 0 74.5 -7.5t57.5 -18t38 -21t23 -17.5l7 -8q25 -54 25 -131q0 -133 -72 -194t-222 -61h-39q-1 -27 -1 -60h195v-70q-3 0 -32 -1t-77.5 -2t-87.5 -2v-52l18 -95l-75 -20h-40l2 164zM275 690
q-50 0 -89 -11l9 -44q-5 -236 -5 -254h57q96 0 141 29q34 54 34 138q0 57 -37.5 99.5t-109.5 42.5z" />
    <glyph glyph-name="uni20C1" unicode="&#x20c1;" 
d="M33 163l-10 79h70l1 63l-61 -2l-10 79h72l4 228l-28 101q113 49 226 49q39 0 74.5 -7.5t57.5 -18t38 -21t23 -17.5l7 -8q25 -54 25 -131q0 -133 -72 -194t-222 -61h-39q-1 -27 -1 -60h195v-70q-3 0 -32 -1t-77.5 -2t-87.5 -2v-52l18 -95l-75 -20h-40l2 164zM275 690
q-50 0 -89 -11l9 -44q-5 -236 -5 -254h57q96 0 141 29q34 54 34 138q0 57 -37.5 99.5t-109.5 42.5z" />
    <glyph glyph-name="uni20C2" unicode="&#x20c2;" 
d="M33 163l-10 79h70l1 63l-61 -2l-10 79h72l4 228l-28 101q113 49 226 49q39 0 74.5 -7.5t57.5 -18t38 -21t23 -17.5l7 -8q25 -54 25 -131q0 -133 -72 -194t-222 -61h-39q-1 -27 -1 -60h195v-70q-3 0 -32 -1t-77.5 -2t-87.5 -2v-52l18 -95l-75 -20h-40l2 164zM275 690
q-50 0 -89 -11l9 -44q-5 -236 -5 -254h57q96 0 141 29q34 54 34 138q0 57 -37.5 99.5t-109.5 42.5z" />
    <glyph glyph-name="uni20C3" unicode="&#x20c3;" 
d="M33 163l-10 79h70l1 63l-61 -2l-10 79h72l4 228l-28 101q113 49 226 49q39 0 74.5 -7.5t57.5 -18t38 -21t23 -17.5l7 -8q25 -54 25 -131q0 -133 -72 -194t-222 -61h-39q-1 -27 -1 -60h195v-70q-3 0 -32 -1t-77.5 -2t-87.5 -2v-52l18 -95l-75 -20h-40l2 164zM275 690
q-50 0 -89 -11l9 -44q-5 -236 -5 -254h57q96 0 141 29q34 54 34 138q0 57 -37.5 99.5t-109.5 42.5z" />
    <glyph glyph-name="uni20C4" unicode="&#x20c4;" 
d="M33 163l-10 79h70l1 63l-61 -2l-10 79h72l4 228l-28 101q113 49 226 49q39 0 74.5 -7.5t57.5 -18t38 -21t23 -17.5l7 -8q25 -54 25 -131q0 -133 -72 -194t-222 -61h-39q-1 -27 -1 -60h195v-70q-3 0 -32 -1t-77.5 -2t-87.5 -2v-52l18 -95l-75 -20h-40l2 164zM275 690
q-50 0 -89 -11l9 -44q-5 -236 -5 -254h57q96 0 141 29q34 54 34 138q0 57 -37.5 99.5t-109.5 42.5z" />
    <glyph glyph-name="uni20C5" unicode="&#x20c5;" 
d="M33 163l-10 79h70l1 63l-61 -2l-10 79h72l4 228l-28 101q113 49 226 49q39 0 74.5 -7.5t57.5 -18t38 -21t23 -17.5l7 -8q25 -54 25 -131q0 -133 -72 -194t-222 -61h-39q-1 -27 -1 -60h195v-70q-3 0 -32 -1t-77.5 -2t-87.5 -2v-52l18 -95l-75 -20h-40l2 164zM275 690
q-50 0 -89 -11l9 -44q-5 -236 -5 -254h57q96 0 141 29q34 54 34 138q0 57 -37.5 99.5t-109.5 42.5z" />
    <glyph glyph-name="uni20C6" unicode="&#x20c6;" 
d="M33 163l-10 79h70l1 63l-61 -2l-10 79h72l4 228l-28 101q113 49 226 49q39 0 74.5 -7.5t57.5 -18t38 -21t23 -17.5l7 -8q25 -54 25 -131q0 -133 -72 -194t-222 -61h-39q-1 -27 -1 -60h195v-70q-3 0 -32 -1t-77.5 -2t-87.5 -2v-52l18 -95l-75 -20h-40l2 164zM275 690
q-50 0 -89 -11l9 -44q-5 -236 -5 -254h57q96 0 141 29q34 54 34 138q0 57 -37.5 99.5t-109.5 42.5z" />
    <glyph glyph-name="uni20C7" unicode="&#x20c7;" 
d="M33 163l-10 79h70l1 63l-61 -2l-10 79h72l4 228l-28 101q113 49 226 49q39 0 74.5 -7.5t57.5 -18t38 -21t23 -17.5l7 -8q25 -54 25 -131q0 -133 -72 -194t-222 -61h-39q-1 -27 -1 -60h195v-70q-3 0 -32 -1t-77.5 -2t-87.5 -2v-52l18 -95l-75 -20h-40l2 164zM275 690
q-50 0 -89 -11l9 -44q-5 -236 -5 -254h57q96 0 141 29q34 54 34 138q0 57 -37.5 99.5t-109.5 42.5z" />
    <glyph glyph-name="uni20C8" unicode="&#x20c8;" 
d="M33 163l-10 79h70l1 63l-61 -2l-10 79h72l4 228l-28 101q113 49 226 49q39 0 74.5 -7.5t57.5 -18t38 -21t23 -17.5l7 -8q25 -54 25 -131q0 -133 -72 -194t-222 -61h-39q-1 -27 -1 -60h195v-70q-3 0 -32 -1t-77.5 -2t-87.5 -2v-52l18 -95l-75 -20h-40l2 164zM275 690
q-50 0 -89 -11l9 -44q-5 -236 -5 -254h57q96 0 141 29q34 54 34 138q0 57 -37.5 99.5t-109.5 42.5z" />
    <glyph glyph-name="uni20C9" unicode="&#x20c9;" 
d="M33 163l-10 79h70l1 63l-61 -2l-10 79h72l4 228l-28 101q113 49 226 49q39 0 74.5 -7.5t57.5 -18t38 -21t23 -17.5l7 -8q25 -54 25 -131q0 -133 -72 -194t-222 -61h-39q-1 -27 -1 -60h195v-70q-3 0 -32 -1t-77.5 -2t-87.5 -2v-52l18 -95l-75 -20h-40l2 164zM275 690
q-50 0 -89 -11l9 -44q-5 -236 -5 -254h57q96 0 141 29q34 54 34 138q0 57 -37.5 99.5t-109.5 42.5z" />
    <glyph glyph-name="uni20CA" unicode="&#x20ca;" 
d="M33 163l-10 79h70l1 63l-61 -2l-10 79h72l4 228l-28 101q113 49 226 49q39 0 74.5 -7.5t57.5 -18t38 -21t23 -17.5l7 -8q25 -54 25 -131q0 -133 -72 -194t-222 -61h-39q-1 -27 -1 -60h195v-70q-3 0 -32 -1t-77.5 -2t-87.5 -2v-52l18 -95l-75 -20h-40l2 164zM275 690
q-50 0 -89 -11l9 -44q-5 -236 -5 -254h57q96 0 141 29q34 54 34 138q0 57 -37.5 99.5t-109.5 42.5z" />
    <glyph glyph-name="uni20CB" unicode="&#x20cb;" 
d="M33 163l-10 79h70l1 63l-61 -2l-10 79h72l4 228l-28 101q113 49 226 49q39 0 74.5 -7.5t57.5 -18t38 -21t23 -17.5l7 -8q25 -54 25 -131q0 -133 -72 -194t-222 -61h-39q-1 -27 -1 -60h195v-70q-3 0 -32 -1t-77.5 -2t-87.5 -2v-52l18 -95l-75 -20h-40l2 164zM275 690
q-50 0 -89 -11l9 -44q-5 -236 -5 -254h57q96 0 141 29q34 54 34 138q0 57 -37.5 99.5t-109.5 42.5z" />
    <glyph glyph-name="uni20CC" unicode="&#x20cc;" 
d="M33 163l-10 79h70l1 63l-61 -2l-10 79h72l4 228l-28 101q113 49 226 49q39 0 74.5 -7.5t57.5 -18t38 -21t23 -17.5l7 -8q25 -54 25 -131q0 -133 -72 -194t-222 -61h-39q-1 -27 -1 -60h195v-70q-3 0 -32 -1t-77.5 -2t-87.5 -2v-52l18 -95l-75 -20h-40l2 164zM275 690
q-50 0 -89 -11l9 -44q-5 -236 -5 -254h57q96 0 141 29q34 54 34 138q0 57 -37.5 99.5t-109.5 42.5z" />
    <glyph glyph-name="uni20CD" unicode="&#x20cd;" 
d="M33 163l-10 79h70l1 63l-61 -2l-10 79h72l4 228l-28 101q113 49 226 49q39 0 74.5 -7.5t57.5 -18t38 -21t23 -17.5l7 -8q25 -54 25 -131q0 -133 -72 -194t-222 -61h-39q-1 -27 -1 -60h195v-70q-3 0 -32 -1t-77.5 -2t-87.5 -2v-52l18 -95l-75 -20h-40l2 164zM275 690
q-50 0 -89 -11l9 -44q-5 -236 -5 -254h57q96 0 141 29q34 54 34 138q0 57 -37.5 99.5t-109.5 42.5z" />
    <glyph glyph-name="uni20CE" unicode="&#x20ce;" 
d="M33 163l-10 79h70l1 63l-61 -2l-10 79h72l4 228l-28 101q113 49 226 49q39 0 74.5 -7.5t57.5 -18t38 -21t23 -17.5l7 -8q25 -54 25 -131q0 -133 -72 -194t-222 -61h-39q-1 -27 -1 -60h195v-70q-3 0 -32 -1t-77.5 -2t-87.5 -2v-52l18 -95l-75 -20h-40l2 164zM275 690
q-50 0 -89 -11l9 -44q-5 -236 -5 -254h57q96 0 141 29q34 54 34 138q0 57 -37.5 99.5t-109.5 42.5z" />
    <glyph glyph-name="uni20CF" unicode="&#x20cf;" 
d="M33 163l-10 79h70l1 63l-61 -2l-10 79h72l4 228l-28 101q113 49 226 49q39 0 74.5 -7.5t57.5 -18t38 -21t23 -17.5l7 -8q25 -54 25 -131q0 -133 -72 -194t-222 -61h-39q-1 -27 -1 -60h195v-70q-3 0 -32 -1t-77.5 -2t-87.5 -2v-52l18 -95l-75 -20h-40l2 164zM275 690
q-50 0 -89 -11l9 -44q-5 -236 -5 -254h57q96 0 141 29q34 54 34 138q0 57 -37.5 99.5t-109.5 42.5z" />
    <glyph glyph-name="afii61352" unicode="&#x2116;" horiz-adv-x="1029" 
d="M596 482q0 133 54 205.5t158 72.5q108 0 155 -60q26 -61 26 -144q0 -133 -54 -205.5t-158 -72.5q-56 0 -97 19t-58 41q-26 61 -26 144zM690 518q0 -95 25 -135t83 -40q41 0 68 22q29 52 29 154q0 95 -25 135t-83 40q-41 0 -68 -22q-29 -52 -29 -154zM618 130l-10 79h350
v-70zM618 -10l-10 79h350v-70zM50 0l10 740l106 20l240 -512l46 -144h4l-16 206l4 300l-18 130l56 10h50l-9 -635l18 -95l-75 -20h-50l-245 523l-41 120h-4l16 -228l-4 -300l17 -105l-55 -10h-50z" />
    <glyph glyph-name="trademark" unicode="&#x2122;" horiz-adv-x="917" 
d="M148 375l13 316q-146 4 -156 4v55h512l123 -284l145 284h92l-10 -302l8 -63l-50 -10h-51l10 278l-123 -258h-81l-108 267l-7 -214l8 -63l-76 -10l14 360h-4l-18 -50l-138 5l-10 -242l8 -63l-50 -10h-51z" />
    <glyph glyph-name="radical" unicode="&#x221a;" horiz-adv-x="534" 
d="M-12 448l-8 78h230l111 -477h4l210 731h59l-216 -800h-133l-120 474z" />
    <glyph glyph-name="infinity" unicode="&#x221e;" horiz-adv-x="916" 
d="M59 294q0 98 55.5 159.5t142.5 61.5q69 0 111 -26l82 -106l28 31q99 109 217 109q63 0 110 -18q22 -24 36.5 -67.5t14.5 -94.5q0 -108 -58 -172t-149 -64q-57 0 -112 21l-91 118l-23 -25q-96 -106 -210 -106q-59 0 -106 18q-20 26 -34 72.5t-14 88.5zM496 330l67 -87
q47 -60 109 -60q37 0 60 14q38 51 38 117q0 129 -111 129q-30 0 -56 -15t-64 -55zM145 324q0 -63 29 -97t74 -34q28 0 54 15.5t62 52.5l37 38l-65 83q-45 56 -96 56q-34 0 -60 -11q-35 -42 -35 -103z" />
    <glyph glyph-name="approxequal" unicode="&#x2248;" horiz-adv-x="520" 
d="M88 314l-16 16v34q64 59 110 70q38 0 100.5 -26.5t97.5 -26.5q20 0 39 8.5t29 17.5l9 9h4l26 -32q-42 -59 -103 -81q-44 0 -108.5 26t-91.5 26q-58 0 -92 -41h-4zM83 150l-16 16v34q64 59 110 70q38 0 100.5 -26.5t97.5 -26.5q20 0 39 8.5t28 17.5l10 9h4l26 -32
q-42 -59 -103 -81q-44 0 -108.5 26t-91.5 26q-58 0 -92 -41h-4z" />
    <glyph glyph-name="notequal" unicode="&#x2260;" horiz-adv-x="490" 
d="M70 313l-10 79h196l45 110h47l-29 -110h111v-70q-1 0 -20 -0.5t-51.5 -1.5t-62.5 -1l-31 -77h165v-70q-43 0 -195 -5l-46 -113h-47l27 111l-99 -2l-10 79h134l31 75z" />
    <glyph glyph-name="lessequal" unicode="&#x2264;" horiz-adv-x="533" 
d="M10 331v54l466 240l27 -56l-387 -205v-4l383 -211l-52 -75zM10 263l479 -291l-42 -61l-437 257v95z" />
    <glyph glyph-name="greaterequal" unicode="&#x2265;" horiz-adv-x="534" 
d="M30 151l388 199v4l-383 211l52 75l437 -257v-54l-466 -240zM31 -10l493 283v-89l-463 -259z" />
    <glyph glyph-name="CR" horiz-adv-x="300" 
 />
    <glyph glyph-name="hyphen.001" horiz-adv-x="356" 
d="M34 316h290v-70l-280 -9z" />
    <glyph glyph-name="zero.alt.001" horiz-adv-x="560" 
d="M40 365q0 196 65 295.5t207 99.5q52 0 96.5 -18t63.5 -36l18 -18q35 -95 35 -303q0 -196 -65.5 -295.5t-207.5 -99.5q-52 0 -96.5 18t-63.5 36l-18 18q-34 92 -34 303zM135 375q0 -169 31 -237t119 -68q31 0 60.5 14t46.5 34q38 92 38 257q0 171 -31.5 238t-119.5 67
q-32 0 -61.5 -14t-45.5 -34q-37 -90 -37 -257z" />
    <glyph glyph-name="one.alt.001" horiz-adv-x="319" 
d="M144 0l19 579l-149 -13l-9 44l105 50l111 100h31q-11 -632 -11 -645l18 -95l-75 -20h-40z" />
    <glyph glyph-name="two.alt.001" horiz-adv-x="479" 
d="M35 0v70l241 326q83 114 83 193q0 35 -23.5 63t-66.5 28l-169 -42l-23 66q98 56 214 56q29 0 55 -6t43 -14t30 -16.5t19 -14.5l6 -6q20 -37 20 -100q0 -120 -114 -262l-213 -265l309 14l10 -90h-421z" />
    <glyph glyph-name="three.alt.001" horiz-adv-x="517" 
d="M44 122l171 -52q86 0 135 38q22 42 22 105q0 25 -3.5 44t-15 42t-38.5 38t-68 19l-97 9v69h136q24 13 45 53t21 90q0 45 -27 74t-73 29l-160 -42l-27 66q103 56 207 56q53 0 94 -15.5t56 -30.5l15 -16q20 -37 20 -84q0 -62 -30 -112t-71 -81l84 -18q37 -56 37 -154
q0 -122 -71 -190.5t-193 -68.5q-110 0 -198 57z" />
    <glyph glyph-name="four.alt.001" horiz-adv-x="535" 
d="M5 175v50l286 417l54 118h50v-9q0 -54 -19.5 -104.5t-62.5 -112.5l-197 -282l216 8v20l-8 120l66 20h40q-4 -139 -4 -155l93 5l11 -95h-105q-1 -45 -1 -60l18 -95l-75 -20h-40q3 156 3 175h-325z" />
    <glyph glyph-name="five.alt.001" horiz-adv-x="487" 
d="M352 261q0 53 -26 82.5t-68 29.5q-101 0 -197 -8l-3 2q4 224 4 243l-28 120l76 20h332l-10 -90l-281 19l7 -44l-17 -222l3 -2q79 33 167 48q69 0 114 -39q27 -51 27 -146q0 -115 -66.5 -199.5t-182.5 -84.5q-110 0 -198 57l29 75l171 -52q40 0 76 13.5t49 29.5
q22 42 22 148z" />
    <glyph glyph-name="six.alt.001" horiz-adv-x="515" 
d="M40 300q0 242 72 351t220 109q39 0 75 -4t52 -8l16 -5v-48l-35 -45l-119 23l-20 2q-81 0 -121 -49q-50 -81 -50 -245q28 30 82.5 54.5t103.5 24.5q79 0 128 -37q46 -62 46 -169q0 -114 -59.5 -189t-179.5 -75q-37 0 -69 7.5t-52 18t-34 21t-20 17.5l-6 8q-30 77 -30 238z
M132 303q7 -120 35.5 -174t108.5 -54q31 0 60 10.5t43 27.5q21 44 21 110q0 76 -27.5 112t-95.5 36q-35 0 -69.5 -15t-51 -29t-24.5 -24z" />
    <glyph glyph-name="seven.alt.001" horiz-adv-x="459" 
d="M20 651l-10 99h444v-55l-267 -695h-108l276 667z" />
    <glyph glyph-name="eight.alt.001" horiz-adv-x="495" 
d="M244 342l-55 -41q-61 -46 -61 -116q0 -48 33.5 -81.5t87.5 -33.5q85 0 113 43q10 31 10 72q0 33 -14.5 57.5t-52.5 53.5zM62 479q-8 36 -8 85q0 85 57.5 140.5t154.5 55.5q94 0 157 -52q20 -53 20 -107q0 -43 -19.5 -91.5t-63.5 -81.5l-40 -30l128 -95q17 -43 17 -102
q0 -98 -59.5 -154.5t-164.5 -56.5q-120 0 -183 52q-23 53 -23 115q0 115 102 199l41 34zM254 446l51 38q24 18 38.5 45.5t14.5 54.5q0 49 -33.5 72.5t-74.5 23.5q-62 0 -96 -31q-12 -24 -12 -65q0 -54 57 -97z" />
    <glyph glyph-name="nine.alt.001" horiz-adv-x="520" 
d="M54 117l147 -37l40 -5q77 0 111 43q41 71 43 245q-30 -28 -81 -48t-105 -20q-79 0 -128 37q-46 62 -46 164q0 112 65 188t186 76q33 0 62.5 -7.5t48 -18t32.5 -21t20 -17.5l6 -8q30 -90 30 -258q0 -109 -14.5 -190t-37.5 -128t-56.5 -75.5t-65.5 -37.5t-71 -9
q-58 0 -111 14t-77 28l-23 15zM125 514q0 -67 28 -101t95 -34q45 0 84.5 20.5t61.5 41.5q-5 135 -33 184.5t-107 49.5q-28 0 -56 -10.5t-42 -27.5q-31 -48 -31 -123z" />
    <glyph glyph-name="EL.salt" horiz-adv-x="976" 
d="M68 0l10 610l-28 120l76 20h332l-10 -90l-281 19l7 -44q-4 -180 -4 -204h232l-10 -90l-223 20q-4 -222 -4 -246l5 -25h174q40 5 74 28t57.5 54t43.5 79.5t32 92t22.5 105.5t16 105.5t11.5 105.5v90h326q0 -12 -4.5 -319.5t-4.5 -315.5l18 -95l-75 -20h-40q16 586 16 610
l-8 70l-148 -11q-22 -259 -41 -354q-42 -206 -152 -274q-66 -41 -162 -41h-258z" />
    <glyph glyph-name="AL.salt" horiz-adv-x="1101" 
d="M15 0l49 117l204 629l120 14l181 -668q34 0 60.5 52.5t43.5 147t26 177.5t17 191v90h335l-8 -635l18 -95l-75 -20h-40q13 595 13 610l-5 70l-158 -13q-22 -302 -39 -402q-36 -207 -126 -256q-33 -19 -76 -19q-42 0 -66 10l-60 230l-245 -20l-27 -93l-27 -107l-65 -10h-50
zM209 300h203l-90 382h-4z" />
    <glyph glyph-name="AR.salt" horiz-adv-x="1062" 
d="M15 0l49 117l204 629l120 14l189 -668l17 16l109 164l37 43v5q-99 12 -142 62q-17 42 -17 124q1 113 72 183.5t207 70.5q40 0 78 -4t56 -8l18 -3l-8 -630l18 -95l-75 -20h-50q5 313 5 330q-28 -14 -79 -14l-116 -204q-37 -66 -67.5 -94t-72.5 -28q-26 0 -45.5 5t-25.5 10
l-6 5l-61 224v-4l-245 -20l-27 -93l-27 -107l-65 -10h-50zM209 300h203l-85 325l-9 57h-4l-11 -57zM684 531q0 -69 32 -100.5t109 -31.5q36 0 78 6q7 177 7 200l-11 70q-27 5 -64 5q-86 0 -128 -43q-23 -58 -23 -106z" />
    <glyph glyph-name="XL.salt" horiz-adv-x="1071" 
d="M15 0l95 141l143 247l-121 222l-87 120l79 20h50l140 -256h4l77 141l56 115h122l-95 -140l-117 -203l124 -225q28 -50 38 -63t20 -13q109 84 143 554v90h336l-9 -635l18 -95l-75 -20h-50q13 590 13 610l-5 70l-148 -13q-20 -267 -46 -394t-65 -198q-25 -46 -51 -65.5
t-66 -19.5t-63.5 18t-49.5 66l-125 227h-4l-103 -186l-56 -115h-122z" />
    <glyph glyph-name="JAR.salt" horiz-adv-x="1796" 
d="M5 0l78 115l159 262l-136 228l-86 135l126 10l53 -120l112 -219h74q3 169 3 199l-18 120l76 20h50q-6 -320 -6 -339h75l103 224l49 115h132l-93 -140l-121 -222l131 -248l29 -47h5l207 653l115 14l189 -668l17 16l109 164l37 43v5q-99 12 -142 62q-17 43 -17 124
q1 113 72 183.5t207 70.5q40 0 78 -4t56 -8l18 -3l-8 -630l18 -95l-75 -20h-50q5 305 5 330q-28 -14 -79 -14l-116 -204q-37 -66 -67.5 -94t-72.5 -28q-26 0 -45.5 5t-25.5 10l-6 5l-61 224v-4l-245 -20l-41 -136q-16 -57 -49 -84q-51 0 -83.5 23.5t-65.5 86.5l-119 229
l-72 -5q-3 -172 -3 -209l8 -115h-115l5 327l-75 -6l-162 -321h-141zM1418 531q0 -69 32 -100.5t109 -31.5q36 0 78 6q7 181 7 200l-11 70q-27 5 -64 5q-86 0 -128 -43q-23 -57 -23 -106zM943 300h203l-85 325l-9 57h-4l-11 -57z" />
    <glyph glyph-name="Ru" 
d="M33 163l-10 79h70l1 63l-61 -2l-10 79h72l4 228l-28 101q113 49 226 49q39 0 74.5 -7.5t57.5 -18t38 -21t23 -17.5l7 -8q25 -54 25 -131q0 -133 -72 -194t-222 -61h-39q-1 -27 -1 -60h195v-70q-3 0 -32 -1t-77.5 -2t-87.5 -2v-52l18 -95l-75 -20h-40l2 164zM275 690
q-50 0 -89 -11l9 -44q-5 -236 -5 -254h57q96 0 141 29q34 54 34 138q0 57 -37.5 99.5t-109.5 42.5z" />
    <glyph glyph-name="p.001" horiz-adv-x="779" 
d="M387 825h49l10 -165l-14 -270q-1 -115 -3 -224l5 -1q15 128 63.5 222.5t109.5 137.5q40 0 70 -13.5t41 -27.5l10 -13q26 -60 26 -157q0 -145 -59 -227t-170 -82q-57 0 -103 21l8 -209l10 -107l-61 -10h-49q0 41 6 147.5t12 192.5l5 86q3 115 3 229l-1 -2l-5 1
q-15 -128 -63.5 -222.5t-109.5 -137.5q-40 0 -70 13.5t-41 26.5l-10 14q-26 60 -26 157q0 145 59 227t170 82q61 0 107 -21l-10 180l-30 132zM450 125q5 -15 30.5 -32.5t68.5 -17.5q21 0 41 5.5t30 10.5l9 5q35 63 35 190q0 150 -61 159q-61 -35 -96.5 -116.5t-56.5 -203.5z
M334 394q-5 15 -30.5 32.5t-68.5 17.5q-21 0 -41 -5t-30 -11l-9 -5q-35 -63 -35 -190q0 -150 61 -159q61 35 96.5 116.5t56.5 203.5z" />
    <glyph glyph-name="afii10077.001" horiz-adv-x="492" 
d="M5 49l86 59q59 61 77 337v55h274v-383l10 -107l-61 -10h-49q10 327 10 348l-6 80l-113 10q-6 -63 -10 -99.5t-12.5 -94t-19.5 -92.5t-27 -73t-38.5 -59.5t-51.5 -29.5l-34 -9z" />
    <glyph glyph-name="afii10078.001" horiz-adv-x="709" 
d="M5 42l78 65q61 80 89 338v35l103 20l112 -375q46 43 93.5 157.5t58.5 197.5l50 20h50l10 -165l10 -218l10 -107l-61 -10h-49v348l-2 32l-3 1q-17 -80 -34 -136.5t-52.5 -120t-80.5 -94.5q-20 0 -45 12.5t-37 27.5l-89 326l-3 -1q-5 -83 -10 -132.5t-20.5 -109
t-39.5 -96.5q-37 -55 -93 -77z" />
    <glyph glyph-name="Acute" horiz-adv-x="240" 
d="M44 796l-44 43l122 141h102l16 -10z" />
    <glyph glyph-name="Grave" horiz-adv-x="240" 
d="M240 839l-44 -43l-196 174l16 10h102z" />
    <glyph glyph-name="afii10097_acute" horiz-adv-x="455" 
d="M15 54l80 31l80 119q-41 0 -72 19q-26 41 -25 104q1 74 51.5 127.5t155.5 53.5q33 0 65.5 -4.5t48.5 -9.5l16 -4l-13 -373l10 -107l-61 -10h-49l15 255q-39 -24 -69.5 -69.5t-54 -92.5t-40.5 -64q-39 -39 -82 -39q-39 0 -51 10zM172 349q0 -50 20 -70q25 -25 62 -25
q26 13 62 23l6 71l11 88q-19 9 -64 9q-56 0 -81 -16q-16 -34 -16 -80zM370 740l-86 -169l-64 23l50 156h64z" />
    <glyph glyph-name="afii10065_acute" horiz-adv-x="467" 
d="M30 179q0 331 274 331q46 0 80 -5t45 -10l11 -5l-10 -67l-77 -10q-35 27 -98 27q-30 0 -52.5 -6.5t-30.5 -13.5l-7 -6q-40 -58 -40 -192q0 -147 61 -147q102 90 151 282l99 -11q-4 -140 -4 -229l10 -107l-61 -10h-49q0 83 6.5 180.5t6.5 118.5l-5 1q-22 -105 -63 -188.5
t-95 -121.5q-41 0 -76 15t-55 39q-21 54 -21 135zM366 740l-86 -169l-64 23l50 156h64z" />
    <glyph glyph-name="afii10070_acute" horiz-adv-x="417" 
d="M30 213q0 133 66 215t180 82q39 0 68 -10t39 -20l10 -10q9 -31 9 -70q0 -169 -249 -220l-25 -5q7 -57 33 -86.5t80 -29.5q29 0 121 33l22 -47q-60 -55 -159 -55q-58 0 -101.5 16t-63.5 38q-30 52 -30 169zM124 249q0 -24 1 -36q58 18 104.5 50t72.5 67q8 17 8 45
q0 11 -2 19t-8.5 18.5t-23 16.5t-42.5 6q-46 0 -75 -20q-35 -63 -35 -166zM347 740l-86 -169l-64 23l50 156h64z" />
    <glyph glyph-name="afii10074_acute" horiz-adv-x="509" 
d="M61 44l9 304l-40 132l60 20h60l17 -164q-6 -204 -6 -208q0 -54 49 -54q61 33 100.5 113t52.5 194q1 10 1 31l-5 73l55 15h50q-1 -372 -1 -383l11 -107l-61 -10h-47q0 103 9.5 217.5t9.5 131.5l-5 1q-17 -134 -72.5 -232t-123.5 -128q-87 0 -123 54zM362 740l-86 -169
l-64 23l50 156h64z" />
    <glyph glyph-name="afii10080_acute" horiz-adv-x="468" 
d="M30 213q0 136 56.5 217t165.5 81q118 0 165 -60q26 -61 26 -164q0 -136 -56.5 -217t-165.5 -81q-63 0 -105 19t-60 41q-26 61 -26 164zM124 249q0 -99 27.5 -147t90.5 -48q51 0 78 22q29 52 29 174q0 99 -27.5 147t-90.5 48q-51 0 -78 -22q-29 -52 -29 -174zM347 740
l-86 -169l-64 23l50 156h64z" />
    <glyph glyph-name="afii10085_acute" horiz-adv-x="495" 
d="M51 44l9 304l-40 132l60 20h60l17 -164q0 -32 -3 -102t-3 -102q0 -58 49 -58q62 33 101.5 114t52.5 195l-9 102l55 15h50q5 -135 5 -216q0 -318 -56 -450q-59 -139 -229 -139q-46 0 -80 5t-45 10l-11 5l10 77l77 10q36 -27 93 -27q16 0 32 3.5t24 7.5l9 4q41 52 68 217.5
t27 341.5l-4 1q-17 -134 -72.5 -232t-123.5 -128q-87 0 -123 54zM357 740l-86 -169l-64 23l50 156h64z" />
    <glyph glyph-name="afii10093_acute" horiz-adv-x="604" 
d="M60 0l10 348l-30 132l60 20h50l10 -164v-107q19 44 54.5 85.5t66.5 58.5q71 0 118 -45q22 -37 22 -114q0 -99 -56.5 -161.5t-170.5 -62.5q-36 0 -69.5 2.5t-48.5 5.5zM464 0l10 348l-30 132l60 20h50l10 -165v-218l10 -107l-61 -10h-49zM157 117l4 -43q3 -3 10 -7
t22.5 -8.5t32.5 -4.5q48 0 78 22q23 31 23 107q0 110 -65 110q-66 -22 -105 -108v-68zM408 740l-86 -169l-64 23l50 156h64z" />
    <glyph glyph-name="afii10095_acute" horiz-adv-x="411" 
d="M22 44l24 47l132 -26q55 0 80 16q25 45 28 148l-180 -19l-10 75h190q-3 82 -29 116t-82 34q-26 0 -54.5 -6t-44.5 -12l-15 -6l-24 46q68 53 158 53q114 0 160 -59q26 -61 26 -164q0 -136 -56.5 -216.5t-165.5 -80.5q-37 0 -72 4.5t-51 9.5l-16 4zM314 740l-86 -169
l-64 23l50 156h64z" />
    <glyph glyph-name="afii10096_acute" horiz-adv-x="709" 
d="M60 0l10 348l-30 132l60 20h50l10 -165v-54h110q13 107 68 168.5t150 61.5q118 0 165 -60q26 -61 26 -164q0 -136 -56.5 -217t-165.5 -81q-63 0 -105 19t-60 41q-26 61 -26 162l-106 14v-108l10 -107l-61 -10h-49zM360 249q0 -99 27.5 -147t90.5 -48q51 0 78 22
q29 52 29 174q0 99 -27.5 147t-90.5 48q-51 0 -78 -22q-29 -52 -29 -174zM426 740l-86 -169l-64 23l50 156h64z" />
    <glyph glyph-name="afii10017_Acute" horiz-adv-x="636" 
d="M15 0l49 117l204 629l120 14l187 -643l43 -97l-78 -20h-40l-61 230l-255 -20l-27 -93l-27 -107l-65 -10h-50zM209 300h213l-99 382h-4zM305 796l-44 43l122 141h102l16 -10z" />
    <glyph glyph-name="afii10022_Acute" horiz-adv-x="496" 
d="M68 0l10 610l-28 120l76 20h332l-10 -90l-281 19l7 -44q-4 -187 -4 -204h232l-10 -90l-223 20q-4 -230 -4 -246l5 -25l296 -20v-70h-398zM224 796l-44 43l122 141h102l16 -10z" />
    <glyph glyph-name="afii10026_Acute" horiz-adv-x="631" 
d="M68 0l10 610l-28 120l76 20h40l8 -115q-12 -485 -12 -503l3 -1l288 599l76 20h50q-11 -611 -11 -635l18 -95l-75 -20h-40q13 606 13 619l-3 1l-288 -600l-75 -20h-50zM293 796l-44 43l122 141h102l16 -10z" />
    <glyph glyph-name="afii10032_Acute" horiz-adv-x="589" 
d="M40 321q0 439 287 439q34 0 65.5 -7.5t52 -18t36 -21t22.5 -17.5l7 -8q39 -84 39 -259q0 -221 -69 -330t-213 -109q-54 0 -101 18t-67 36l-20 18q-39 84 -39 259zM135 386q0 -182 34.5 -249t125.5 -67q32 0 66.5 16t50.5 36q17 28 29.5 96.5t12.5 140.5q0 181 -37 251
t-128 70q-32 0 -64 -14.5t-48 -34.5q-17 -27 -29.5 -99.5t-12.5 -145.5zM267 796l-44 43l122 141h102l16 -10z" />
    <glyph glyph-name="afii10037_Acute" horiz-adv-x="576" 
d="M92 44l119 44q14 10 27.5 29.5t16.5 38.5l-235 574l79 20h44l30 -114l135 -374h4l119 373l31 115h104l-54 -140l-120 -348q-51 -147 -104 -212t-134 -65q-14 0 -28 2.5t-21 4.5l-7 3zM286 796l-44 43l122 141h102l16 -10z" />
    <glyph glyph-name="afii10045_Acute" horiz-adv-x="784" 
d="M58 5l10 605l-28 120l76 20h40l8 -115q-3 -173 -3 -194q76 8 124 8q51 0 91.5 -8.5t55.5 -17.5l16 -9q22 -20 39.5 -66t17.5 -113q0 -44 -14.5 -84.5t-45.5 -78t-89.5 -60t-137.5 -22.5q-33 0 -73 4t-63 8zM629 0l10 610l-28 120l76 20h40l8 -115q-9 -499 -9 -520l18 -95
l-75 -20h-40zM155 115l6 -31q36 -14 106 -14q68 0 110 40q27 43 27 115q0 144 -188 144l-57 -5q-4 -231 -4 -249zM358 796l-44 43l122 141h102l16 -10z" />
    <glyph glyph-name="afii10047_Acute" horiz-adv-x="532" 
d="M25 70l32 52l169 -52q82 0 124 52q18 29 32.5 97.5t14.5 138.5l-241 -20l-10 90h250q-6 137 -39.5 194.5t-106.5 57.5l-160 -42l-27 66q107 56 207 56q34 0 65.5 -7.5t52 -18t36 -21t22.5 -17.5l7 -8q39 -84 39 -259q0 -221 -69 -330t-213 -109q-54 0 -100.5 9t-65.5 19
l-19 9v43zM210 796l-44 43l122 141h102l16 -10z" />
    <glyph glyph-name="afii10048_Acute" horiz-adv-x="853" 
d="M68 0l10 610l-28 120l76 20h40l8 -115q-4 -198 -4 -219h138q29 344 283 344q34 0 65.5 -7.5t52 -18t36 -21t22.5 -17.5l7 -8q39 -84 39 -259q0 -221 -69 -330t-213 -109q-54 0 -101 18t-67 36l-20 18q-39 84 -39 259v24l-135 -14q-4 -192 -4 -216l18 -95l-75 -20h-40z
M399 386q0 -182 34.5 -249t125.5 -67q32 0 66.5 16t50.5 36q17 28 29.5 96.5t12.5 140.5q0 181 -37 251t-128 70q-32 0 -64 -14.5t-48 -34.5q-17 -27 -29.5 -99.5t-12.5 -145.5zM350 796l-44 43l122 141h102l16 -10z" />
    <glyph glyph-name="afii10049_Acute" horiz-adv-x="575" 
d="M97 0l-92 20l82 95l133 208q-33 4 -67.5 21.5t-51.5 37.5q-17 42 -17 124q1 113 72 183.5t207 70.5q40 0 78.5 -4t57.5 -8l19 -3l-11 -630l18 -95l-75 -20h-40q5 317 5 335q-40 -15 -107 -15l-163 -320h-48zM182 531q0 -142 146 -142q46 0 88 6q4 196 4 210l-11 70
q-23 10 -71 10q-87 0 -133 -48q-23 -57 -23 -106zM302 796l-44 43l122 141h102l16 -10z" />
    <glyph glyph-name="zerooldstyle" horiz-adv-x="540" 
d="M135 249q0 -103 32 -144t112 -41q63 0 93 22q17 27 27.5 73t10.5 91q0 103 -32 144t-112 41q-63 0 -93 -22q-17 -27 -27.5 -73t-10.5 -91zM79 44q-39 80 -39 179q0 61 13 111t41 91t78 63.5t118 22.5q114 0 176 -55q39 -80 39 -179q0 -61 -13 -111t-41 -91t-78 -63.5
t-118 -22.5q-114 0 -176 55z" />
    <glyph glyph-name="oneoldstyle" horiz-adv-x="414" 
d="M15 0l9 77l146 -12q7 256 7 272l-145 -13l-8 37l146 70l57 79h45q-7 -372 -7 -395l7 -38l132 -12v-65h-389z" />
    <glyph glyph-name="twooldstyle" horiz-adv-x="426" 
d="M15 0v70l240 218q49 44 49 94q0 43 -67 43l-50 -3l-128 -31l-21 41q49 39 108.5 58.5t114.5 19.5q96 0 133 -27q15 -35 15 -85q0 -49 -35 -100.5t-118 -116.5l-136 -106l286 15l10 -90h-401z" />
    <glyph glyph-name="threeoldstyle" horiz-adv-x="430" 
d="M34 -310l-19 49l123 57q84 38 127 85.5t43 93.5q0 52 -27.5 82.5t-102.5 38.5l-77 9v54q61 7 110.5 48t71.5 82.5t22 67.5q0 34 -18.5 51t-48.5 17l-45 -3l-128 -31l-21 41q98 78 213 78q95 0 138 -32q15 -28 15 -75q0 -59 -44.5 -128.5t-128.5 -113.5v-4q92 -7 134 -29
q37 -49 37 -121q0 -53 -21 -99t-56 -80.5t-83.5 -62.5t-101.5 -46t-112 -29z" />
    <glyph glyph-name="fouroldstyle" horiz-adv-x="520" 
d="M310 -300l9 320h-319v40l312 349l67 101h45q-11 -386 -11 -413l91 8l11 -85h-104q-4 -173 -4 -205l18 -95l-75 -20h-40zM320 91l3 98l14 150l-3 2l-228 -271z" />
    <glyph glyph-name="fiveoldstyle" horiz-adv-x="463" 
d="M53 120l11 240l-18 120l76 20h292l-10 -90l-251 19l-26 -263l3 -2q64 38 132 48q94 0 139 -39q27 -51 27 -146q0 -128 -104.5 -218t-269.5 -119l-19 49l123 57q87 40 128.5 92.5t41.5 125.5q0 54 -25.5 83t-73.5 29q-77 0 -173 -8z" />
    <glyph glyph-name="sixoldstyle" horiz-adv-x="475" 
d="M40 229q0 457 407 597l21 -42l-122 -78q-139 -88 -191 -266q53 32 125 32q98 0 161 -55q29 -60 29 -149q0 -125 -57.5 -201.5t-177.5 -76.5q-104 0 -166 55q-29 60 -29 184zM135 231q0 -91 26.5 -128t97.5 -37q48 0 78 22q33 52 33 160q0 79 -25 114t-89 35
q-30 0 -62 -9.5t-48 -21.5q-11 -51 -11 -135z" />
    <glyph glyph-name="sevenoldstyle" horiz-adv-x="414" 
d="M38 -300l276 666l11 61l-315 -26l-10 99h414v-39l-41 -138l-185 -508l-10 -95l-75 -20h-65z" />
    <glyph glyph-name="eightoldstyle" horiz-adv-x="463" 
d="M125 215q0 -72 32 -108.5t89 -36.5q53 0 83 33q12 32 12 75q0 102 -67 161l-65 59l-35 -44q-49 -60 -49 -139zM35 151q0 116 105 239l33 38l-106 101q-10 36 -10 69q0 94 57 153t151 59q41 0 79 -14.5t59 -37.5q15 -31 15 -95q0 -102 -80 -185l-37 -39l111 -111
q21 -41 21 -117q0 -99 -62 -160t-147 -61q-112 0 -167 52q-22 45 -22 109zM147 634q0 -62 55 -111l64 -57l26 33q38 46 38 111q0 120 -92 120q-52 0 -83 -31q-8 -25 -8 -65z" />
    <glyph glyph-name="nineoldstyle" horiz-adv-x="481" 
d="M21 233q0 121 61 199.5t169 78.5q104 0 166 -55q29 -60 29 -200q0 -44 -2.5 -81t-12 -88t-26.5 -94t-47.5 -91t-72.5 -85.5t-105 -71.5t-141 -55l-19 44l126 73q75 44 122.5 113t62.5 141q-53 -32 -125 -32q-93 0 -156 55q-29 60 -29 149zM116 253q0 -79 25 -114t89 -35
q68 0 110 31q11 51 11 135q0 91 -26.5 128t-97.5 37q-48 0 -78 -22q-33 -52 -33 -160z" />
    <glyph glyph-name="a.smcp" horiz-adv-x="577" 
d="M24 0l46 83l168 438l118 10l150 -418l44 -99l-82 -14h-41l-46 160l-192 -14q-3 -10 -10 -31.5t-10 -32.5l-22 -75l-63 -7h-60zM213 211h152l-71 255h-4z" />
    <glyph glyph-name="b.smcp" horiz-adv-x="523" 
d="M78 4l8 421l-25 71q102 35 198 35q39 0 72 -5.5t51.5 -13.5t31.5 -16t18 -14l4 -5q17 -34 17 -66q0 -79 -68 -124l41 -18q23 -14 40 -43.5t17 -64.5q0 -75 -62.5 -121.5t-200.5 -46.5q-27 0 -62.5 3t-57.5 6zM188 443l-2 -145h62q55 0 77.5 29.5t22.5 68.5q0 34 -27 57
t-73 23q-25 0 -67 -6zM185 251l-3 -166l4 -25q30 -10 79 -10q60 0 93 31q20 31 20 70q0 37 -25.5 63.5t-74.5 30.5z" />
    <glyph glyph-name="c.smcp" horiz-adv-x="475" 
d="M63 219q0 165 66.5 238.5t201.5 73.5q45 0 114 -22v-42l-49 -24l-109 29q-51 0 -77 -32q-18 -23 -31.5 -73t-13.5 -108q0 -106 31 -158q35 -46 99 -46l124 27l21 -45q-101 -44 -160 -44q-55 0 -100.5 14t-63.5 28l-18 14q-35 62 -35 170z" />
    <glyph glyph-name="d.smcp" horiz-adv-x="537" 
d="M188 443l-5 -357l3 -26q26 -9 60 -9q77 0 108 33q13 27 21.5 79.5t8.5 97.5q0 120 -27 169t-105 49q-46 0 -72 -8zM78 4l8 421l-25 71q98 35 203 35q60 0 107.5 -12.5t64.5 -25.5l18 -13q13 -23 22.5 -74t9.5 -107q0 -170 -58.5 -238t-205.5 -68q-28 0 -64 3t-58 6z" />
    <glyph glyph-name="e.smcp" horiz-adv-x="476" 
d="M87 0l9 425l-26 85l77 14h283l-10 -64l-231 11l8 -28q-2 -130 -2 -141h189l-10 -65l-181 15q0 -1 -1 -80.5t-1 -85.5l4 -22l241 -13v-51h-349z" />
    <glyph glyph-name="f.smcp" horiz-adv-x="434" 
d="M77 0l9 425l-25 85l75 14h284l-9 -64l-231 11l8 -28q-2 -132 -2 -145h189l-11 -64l-187 15q4 -157 4 -168l17 -67l-75 -14h-46z" />
    <glyph glyph-name="g.smcp" horiz-adv-x="504" 
d="M245 222v50h219l-3 -202q-56 -77 -204 -77q-35 0 -66 5.5t-49.5 12.5t-32.5 14.5t-19 12.5l-6 6q-34 58 -34 181q0 154 63 230t194 76q74 0 136 -24v-39l-47 -27l-110 31q-66 0 -103 -33q-12 -19 -21.5 -69.5t-9.5 -100.5q0 -127 22.5 -172.5t86.5 -45.5q71 0 101 21
l1 141z" />
    <glyph glyph-name="h.smcp" horiz-adv-x="566" 
d="M78 0l8 425l-25 85l77 14h44l6 -81l-2 -152h214l-3 134l-16 85l76 14l39 -1l-4 -442l18 -67l-74 -14l-41 1l-2 239l-216 -11l5 -148l16 -67l-75 -14h-45z" />
    <glyph glyph-name="i.smcp" horiz-adv-x="288" 
d="M94 0l9 425l-26 85l76 14h45l7 -81l-8 -362l19 -67l-75 -14h-47z" />
    <glyph glyph-name="j.smcp" horiz-adv-x="285" 
d="M14 22l37 18q45 28 49 50q5 324 5 335l-25 85l75 14h47l6 -81l-6 -300q-1 -29 -5.5 -48.5t-16 -42t-36.5 -39t-64 -27.5l-46 -12z" />
    <glyph glyph-name="k.smcp" horiz-adv-x="528" 
d="M78 0l8 425l-25 85l77 14h44l6 -81l-2 -152h43l106 152l49 81h130l-98 -99l-117 -157l140 -186l72 -67l-70 -15l-69 -3l-155 236l-39 -4q4 -140 4 -148l16 -67l-74 -14h-46z" />
    <glyph glyph-name="l.smcp" horiz-adv-x="432" 
d="M78 0l9 425l-26 85l77 14h45l5 -81q-6 -349 -6 -362l4 -17l232 -13v-51h-340z" />
    <glyph glyph-name="m.smcp" horiz-adv-x="709" 
d="M370 170l129 340l71 14l47 -1l14 -442l17 -67l-74 -14h-45l-4 434l-23 -84l-103 -301h-114l-115 309l-18 75l-3 -352l17 -74l-57 -7h-48l21 510l116 14l156 -403h4z" />
    <glyph glyph-name="n.smcp" horiz-adv-x="543" 
d="M61 0l9 517l105 14l182 -354l48 -108h2l-28 147l3 209l-17 92l59 7h55l-8 -443l16 -67l-74 -14h-50l-176 350l-42 104h-3l19 -165l-4 -208q1 -6 7.5 -33t8.5 -41l-56 -7h-56z" />
    <glyph glyph-name="o.smcp" horiz-adv-x="539" 
d="M50 225q0 306 246 306q47 0 87 -12.5t57 -25.5l16 -13q32 -58 32 -181q0 -155 -58.5 -230.5t-180.5 -75.5q-47 0 -88 12.5t-59 25.5l-18 13q-34 58 -34 181zM152 269q0 -125 26 -171.5t92 -46.5q24 0 49 11t37 25q12 20 21 67.5t9 96.5q0 125 -26.5 173t-94.5 48
q-53 0 -81 -33q-12 -19 -22 -69.5t-10 -100.5z" />
    <glyph glyph-name="p.smcp" horiz-adv-x="489" 
d="M78 0l7 425l-24 71q104 35 198 35q53 0 96.5 -12.5t60.5 -25.5l17 -13q22 -38 22 -93q0 -83 -63 -132t-166 -49q-11 0 -28.5 0.5t-21.5 0.5q5 -115 5 -126l16 -67l-74 -14h-45zM249 480q-43 0 -71 -9l10 -28q-4 -164 -4 -176q20 -2 27 -2q78 0 112 21q26 39 26 96
q0 40 -24.5 69t-75.5 29z" />
    <glyph glyph-name="r.smcp" horiz-adv-x="547" 
d="M78 0l7 425l-24 71q103 35 198 35q56 0 101.5 -11.5t63.5 -23.5l17 -12q21 -32 21 -97q0 -51 -29 -92t-83 -59l96 -154l66 -67l-63 -15h-72l-128 216l-73 1l6 -136l15 -67l-74 -14h-45zM241 480q-39 0 -63 -9l10 -28q-3 -166 -3 -176q22 -2 34 -2q77 0 113 31
q25 33 25 86q0 43 -28.5 70.5t-87.5 27.5z" />
    <glyph glyph-name="s.smcp" horiz-adv-x="433" 
d="M290 76l8 22q4 17 4 28q0 37 -46 67l-187 125q-20 27 -22 61q0 75 57 113.5t153 38.5q50 0 110 -20v-42l-47 -24l-100 27q-69 0 -69 -63q0 -38 37 -63l192 -129q23 -37 23 -67q0 -70 -55.5 -113.5t-146.5 -43.5q-48 0 -89.5 8.5t-59.5 16.5l-17 9v32l30 37l153 -45
q47 0 72 25z" />
    <glyph glyph-name="t.smcp" horiz-adv-x="421" 
d="M14 471v53h414l-9 -64l-152 8l3 -25l-8 -362l17 -67l-75 -14h-45l8 425q-8 33 -10 39z" />
    <glyph glyph-name="u.smcp" horiz-adv-x="553" 
d="M78 72l8 353l-25 85l75 14h45l6 -81q-4 -284 -4 -294q0 -45 20 -65q11 -13 34 -23t46 -10q34 0 59 9.5t34 19.5l8 10l6 335l-17 85l76 14h43l-7 -442q-2 -4 -6.5 -10t-21.5 -21t-38 -27t-57.5 -21.5t-79.5 -9.5q-42 0 -78.5 8t-58.5 19.5t-38 23.5t-23 20z" />
    <glyph glyph-name="v.smcp" horiz-adv-x="552" 
d="M220 -7l-151 432l-45 85l81 14h38l137 -459h3l112 378l21 81h112l-44 -99l-139 -418l-66 -14h-59z" />
    <glyph glyph-name="w.smcp" horiz-adv-x="728" 
d="M131 0l-73 424l-29 86l71 14h48l62 -447h3l93 398l67 13h47l98 -411h3l58 366l12 81h107l-28 -99q-14 -73 -45 -211t-44 -200l-71 -14h-61l-93 398h-2l-96 -398h-127z" />
    <glyph glyph-name="x.smcp" horiz-adv-x="560" 
d="M24 0l90 100l114 170l-95 155l-81 84l88 15h36l109 -183h2l58 102l49 81h131l-90 -99l-92 -140l128 -203l70 -74l-90 -8h-37l-131 213h-2l-77 -132l-51 -81h-129z" />
    <glyph glyph-name="y.smcp" horiz-adv-x="488" 
d="M188 0l4 181l-117 244l-61 85l78 14h42l113 -263h3l80 182l31 81h119l-65 -99l-122 -244l-1 -100l17 -67l-75 -14h-46z" />
    <glyph glyph-name="z.smcp" horiz-adv-x="453" 
d="M19 0v50l285 418l-240 -11l-9 67h379v-50l-287 -419l262 12l9 -67h-399z" />
    <glyph glyph-name="afii10065.smcp" horiz-adv-x="577" 
d="M24 0l46 83l168 438l118 10l150 -418l44 -99l-82 -14h-41l-46 160l-192 -14q-3 -10 -10 -31.5t-10 -32.5l-22 -75l-63 -7h-60zM213 211h152l-71 255h-4z" />
    <glyph glyph-name="afii10066.smcp" horiz-adv-x="496" 
d="M78 4l8 421l-25 85l77 14h300l-10 -66l-247 13l7 -28q-1 -123 -1 -133q80 4 88 4q43 0 78 -6t49 -12l13 -6q20 -14 35.5 -46t15.5 -80q0 -69 -58.5 -120t-187.5 -51q-27 0 -62.5 3t-57.5 6zM182 83l3 -22q30 -10 75 -10q44 0 76 27q20 31 20 79q0 49 -29 74.5t-99 25.5
q-44 -2 -50 -3z" />
    <glyph glyph-name="afii10067.smcp" horiz-adv-x="523" 
d="M78 4l8 421l-25 71q102 35 198 35q39 0 72 -5.5t51.5 -13.5t31.5 -16t18 -14l4 -5q17 -34 17 -66q0 -79 -68 -124l41 -18q23 -14 40 -43.5t17 -64.5q0 -75 -62.5 -121.5t-200.5 -46.5q-27 0 -62.5 3t-57.5 6zM188 443l-2 -145h62q55 0 77.5 29.5t22.5 68.5q0 34 -27 57
t-73 23q-25 0 -67 -6zM185 251l-3 -166l4 -25q30 -10 79 -10q60 0 93 31q20 31 20 70q0 37 -25.5 63.5t-74.5 30.5z" />
    <glyph glyph-name="afii10068.smcp" horiz-adv-x="407" 
d="M66 0l10 425l-26 85l76 14h268l-9 -66l-215 13l7 -28q-7 -347 -7 -362l18 -67l-76 -14h-46z" />
    <glyph glyph-name="afii10069.smcp" horiz-adv-x="603" 
d="M172 58l219 -7l7 374l-3 47l-106 -8q-23 -300 -117 -406zM584 60l-26 -203h-87v153l-35 -10h-321l-16 -143h-85v204l78 9q50 55 73.5 151t33.5 240v63h303l-9 -432l5 -27z" />
    <glyph glyph-name="afii10070.smcp" horiz-adv-x="475" 
d="M86 0l8 425l-25 85l77 14h283l-10 -64l-231 11l8 -28q-2 -130 -2 -141h189l-10 -65l-181 15q0 -1 -1 -80.5t-1 -85.5l4 -22l241 -13v-51h-349z" />
    <glyph glyph-name="afii10071.smcp" horiz-adv-x="466" 
d="M281 592l-21 75l77 10h37q0 -40 -12 -79zM138 592l-20 75l76 10h38q0 -41 -13 -79zM78 0l8 425l-25 85l77 14h283l-10 -64l-231 11l8 -28q-2 -130 -2 -141h189l-11 -65l-180 15q0 -1 -1 -80.5t-1 -85.5l4 -22l240 -13v-51h-348z" />
    <glyph glyph-name="afii10072.smcp" horiz-adv-x="770" 
d="M333 0l4 228l-45 -4l-137 -224h-141l76 82l126 180l-107 159l-81 96l127 7l48 -84l90 -152l51 -1q-3 121 -3 138l-17 85l72 14l43 -1l1 -235h45l92 155l44 81h135l-89 -99l-103 -155l125 -188l63 -68l-83 -14h-44l-144 229l-43 -3l-1 -145l6 -81h-110z" />
    <glyph glyph-name="afii10073.smcp" horiz-adv-x="439" 
d="M14 55l29 36l128 -35q71 0 105 24q18 27 18 73q0 79 -103 94q-13 -1 -45 -4t-37 -4l-8 65h43q66 0 92 12q13 10 23 33t10 50q0 33 -18 53t-49 20l-141 -33l-27 51q98 41 183 41q42 0 78.5 -11.5t51.5 -23.5l15 -12q17 -34 17 -80q0 -29 -23.5 -60t-59.5 -54q4 -1 29.5 -7
t34.5 -11q16 -11 30 -43t13 -72q-1 -76 -62 -120t-164 -44q-51 0 -92 7.5t-56 15.5l-15 7v32z" />
    <glyph glyph-name="afii10074.smcp" horiz-adv-x="583" 
d="M78 0l8 425l-25 85l77 14h45l5 -81l-7 -344h2l212 411l70 14l46 -1q-2 -425 -2 -442l18 -67l-76 -14h-46q0 186 10 424h-2l-212 -410l-69 -14h-54z" />
    <glyph glyph-name="afii10075.smcp" horiz-adv-x="591" 
d="M166 640l44 54q56 -29 109 -29q56 0 111 30l38 -25q-20 -23 -68 -46.5t-87 -32.5q-89 0 -147 49zM86 0l8 425l-25 85l77 14h45l5 -81l-7 -344h2l212 411l71 14l46 -1q-2 -425 -2 -442l17 -67l-75 -14h-46q0 167 9 424h-2l-212 -410l-68 -14h-55z" />
    <glyph glyph-name="afii10076.smcp" horiz-adv-x="528" 
d="M78 0l8 425l-25 85l77 14h44l6 -81l-2 -152h43l106 152l49 81h130l-98 -99l-117 -157l140 -186l72 -67l-70 -15l-69 -3l-155 236l-39 -4q4 -140 4 -148l16 -67l-74 -14h-46z" />
    <glyph glyph-name="afii10077.smcp" horiz-adv-x="559" 
d="M387 0l13 425l-4 47l-106 -8q-5 -65 -11 -113t-19 -109.5t-30.5 -104.5t-47 -81t-67.5 -56h-74l-27 54l69 31q48 47 78.5 147t39.5 229v63h297l-7 -443l17 -67l-74 -14h-47z" />
    <glyph glyph-name="afii10078.smcp" horiz-adv-x="709" 
d="M370 170l129 340l71 14l47 -1l14 -442l17 -67l-74 -14h-45l-4 434l-23 -84l-103 -301h-114l-115 309l-18 75l-3 -352l17 -74l-57 -7h-48l21 510l116 14l156 -403h4z" />
    <glyph glyph-name="afii10079.smcp" horiz-adv-x="566" 
d="M78 0l8 425l-25 85l77 14h44l6 -81l-2 -152h214l-3 134l-16 85l76 14l39 -1l-4 -442l18 -67l-74 -14l-41 1l-2 239l-216 -11l5 -148l16 -67l-75 -14h-45z" />
    <glyph glyph-name="afii10080.smcp" horiz-adv-x="539" 
d="M50 225q0 306 246 306q47 0 87 -12.5t57 -25.5l16 -13q32 -58 32 -181q0 -155 -58.5 -230.5t-180.5 -75.5q-47 0 -88 12.5t-59 25.5l-18 13q-34 58 -34 181zM152 269q0 -125 26 -171.5t92 -46.5q24 0 49 11t37 25q12 20 21 67.5t9 96.5q0 125 -26.5 173t-94.5 48
q-53 0 -81 -33q-12 -19 -22 -69.5t-10 -100.5z" />
    <glyph glyph-name="afii10081.smcp" horiz-adv-x="566" 
d="M78 0l8 425l-25 85l77 14l358 -1q-4 -424 -4 -442l18 -67l-74 -14h-48q9 408 9 425l-3 47l-211 -12l5 -17q-6 -345 -6 -362l16 -67l-75 -14h-45z" />
    <glyph glyph-name="afii10082.smcp" horiz-adv-x="489" 
d="M78 0l7 425l-24 71q104 35 198 35q53 0 96.5 -12.5t60.5 -25.5l17 -13q22 -38 22 -93q0 -83 -63 -132t-166 -49q-11 0 -28.5 0.5t-21.5 0.5q5 -115 5 -126l16 -67l-74 -14h-45zM249 480q-43 0 -71 -9l10 -28q-4 -164 -4 -176q20 -2 27 -2q78 0 112 21q26 39 26 96
q0 40 -24.5 69t-75.5 29z" />
    <glyph glyph-name="afii10083.smcp" horiz-adv-x="462" 
d="M50 219q0 165 66.5 238.5t201.5 73.5q46 0 115 -22v-42l-50 -24l-109 29q-51 0 -77 -32q-18 -23 -31.5 -73t-13.5 -108q0 -106 32 -158q35 -46 98 -46l124 27l21 -45q-101 -44 -159 -44q-55 0 -101 14t-64 28l-18 14q-35 62 -35 170z" />
    <glyph glyph-name="afii10084.smcp" horiz-adv-x="474" 
d="M29 471v53h415l-9 -64l-153 8l4 -25l-8 -362l17 -67l-76 -14h-45l9 425q-3 11 -10 39z" />
    <glyph glyph-name="afii10085.smcp" horiz-adv-x="525" 
d="M96 40l100 22q25 20 30 46l-197 402l81 14h45l27 -80l98 -255h2l87 254l27 81h110l-48 -99l-99 -242q-40 -101 -85 -146t-117 -48q-12 0 -26 3.5t-21 7.5l-8 4z" />
    <glyph glyph-name="afii10086.smcp" horiz-adv-x="644" 
d="M269 -14l2 103l-67 -12q-48 0 -88.5 8.5t-57.5 17.5l-16 9q-34 65 -34 148q0 113 62 170.5t164 57.5l38 -14l-11 77l76 15h39l4 -91l68 13q48 0 87 -9t55 -17l15 -9q35 -62 35 -146q0 -113 -59 -171.5t-153 -58.5l-57 12v-22l19 -67l-75 -14h-46zM112 283
q0 -83 24 -115.5t81 -32.5l59 -1v290l-57 8q-49 0 -73 -17q-34 -45 -34 -132zM421 428l-50 -3v-290h53q50 0 79 18q34 53 34 133q0 84 -26.5 115.5t-89.5 26.5z" />
    <glyph glyph-name="afii10087.smcp" horiz-adv-x="560" 
d="M24 0l90 100l114 170l-95 155l-81 84l88 15h36l109 -183h2l58 102l49 81h131l-90 -99l-92 -140l128 -203l70 -74l-90 -8h-37l-131 213h-2l-77 -132l-51 -81h-129z" />
    <glyph glyph-name="afii10088.smcp" horiz-adv-x="604" 
d="M87 0l9 425l-26 85l76 14h45l6 -81q-6 -349 -6 -362l3 -20q40 -2 203 -11l1 375l-17 85l77 14l38 -1l-1 -442l5 -24l85 -3l-26 -197h-89v153l-34 -10h-349z" />
    <glyph glyph-name="afii10089.smcp" horiz-adv-x="487" 
d="M303 0l6 247q-90 -54 -143 -54q-44 4 -78.5 26.5t-50.5 52.5l2 153l-25 85l75 14h45l8 -81q-2 -103 -2 -109q0 -75 78 -75q30 0 57 14t36 25l2 127l-17 85l75 14l40 -1q-4 -427 -4 -442l19 -67l-75 -14h-48z" />
    <glyph glyph-name="afii10090.smcp" horiz-adv-x="781" 
d="M79 0l8 425l-26 85l77 14h46l5 -81l-6 -362l6 -20l160 -11q2 361 2 375l-17 85l75 14h46q-10 -424 -10 -443l5 -20l161 -11q1 362 1 375l-17 85l77 14l38 -1l-1 -442l17 -67l-76 -14h-571z" />
    <glyph glyph-name="afii10091.smcp" horiz-adv-x="817" 
d="M79 0l7 425l-25 85l77 14h45l6 -81q-6 -349 -6 -362l3 -20l163 -11q1 362 1 375l-16 85l74 14h47l-10 -443l4 -20l161 -11l1 375l-16 85l76 14l39 -1q-2 -424 -2 -442l4 -23l86 -4l-26 -196h-90v152l-32 -10h-571z" />
    <glyph glyph-name="afii10092.smcp" horiz-adv-x="562" 
d="M17 472l-3 52l246 -1l4 -213q76 4 88 4q43 0 77.5 -6t48.5 -12l13 -6q19 -14 35.5 -51t16.5 -85q0 -67 -58 -114t-187 -47q-28 0 -64 3t-58 6l-22 2q9 408 9 421l-8 35zM258 81l6 -20q27 -10 74 -10q49 0 79 27q20 34 20 79q0 49 -31 74.5t-103 25.5q-45 -3 -48 -3z" />
    <glyph glyph-name="afii10093.smcp" horiz-adv-x="703" 
d="M67 4l9 421l-26 85l77 14h44l7 -81q-2 -120 -2 -133q76 4 88 4q43 0 78 -6t49 -12l14 -6q20 -15 36 -47t16 -79q0 -69 -59 -120t-188 -51q-27 0 -63 3t-58 6zM532 0l8 425l-26 85l76 14h45l8 -81q-8 -347 -8 -362l18 -67l-77 -14h-44zM171 81l5 -20q30 -10 74 -10
q48 0 80 27q20 34 20 79q0 100 -142 100q-33 -2 -40 -3z" />
    <glyph glyph-name="afii10094.smcp" horiz-adv-x="476" 
d="M67 4l9 421l-26 85l77 14h44l7 -81q-2 -120 -2 -133q76 4 88 4q43 0 78 -6t49 -12l14 -6q20 -15 36 -47t16 -79q0 -69 -59 -120t-188 -51q-27 0 -63 3t-58 6zM171 81l5 -20q30 -10 74 -10q48 0 80 27q20 34 20 79q0 100 -142 100q-33 -2 -40 -3z" />
    <glyph glyph-name="afii10095.smcp" horiz-adv-x="488" 
d="M35 55l28 36l147 -40q61 0 89 36q13 19 24 66t13 96l-196 -14l-10 64h205q-5 93 -30.5 133t-75.5 40l-138 -36l-27 51q41 16 62.5 23.5t54 14t65.5 6.5q47 0 86.5 -12.5t55.5 -25.5l16 -13q34 -58 34 -181q0 -154 -59.5 -230t-182.5 -76q-46 0 -86 7.5t-58 15.5l-17 7v32
z" />
    <glyph glyph-name="afii10096.smcp" horiz-adv-x="708" 
d="M79 0l7 425l-25 85l77 14h46l5 -81l-3 -152h89q32 240 242 240q47 0 86.5 -12.5t55.5 -25.5l16 -13q35 -60 35 -181q0 -155 -59.5 -230.5t-183.5 -75.5q-46 0 -86.5 12.5t-57.5 25.5l-17 13q-36 62 -36 181v14l-89 -8l2 -150l16 -67l-74 -14h-46zM373 269
q0 -125 25 -171.5t91 -46.5q25 0 50 11t35 25q13 20 23.5 67.5t10.5 96.5q0 124 -28 172.5t-95 48.5q-22 0 -45.5 -9.5t-34.5 -23.5q-13 -19 -22.5 -69t-9.5 -101z" />
    <glyph glyph-name="afii10097.smcp" horiz-adv-x="529" 
d="M104 0l-90 16l73 66l97 142q-55 13 -86 42q-15 28 -15 88q0 79 60 128t179 49q32 0 67 -2.5t53 -5.5l19 -3l-10 -439l17 -67l-74 -14l-39 1l-2 223q-21 -7 -74 -9l-127 -215h-48zM187 364q0 -46 25 -69t81 -23q15 0 37 2l23 2l2 145l-7 47q-17 8 -53 8q-56 0 -91 -33
q-17 -38 -17 -79z" />
    <glyph glyph-name="q.smcp" horiz-adv-x="539" 
d="M152 269q0 -125 26 -171.5t92 -46.5q24 0 49 11t37 25q12 20 21 67.5t9 96.5q0 125 -26.5 173t-94.5 48q-53 0 -81 -33q-12 -19 -22 -69.5t-10 -100.5zM488 299q0 -45 -5 -84t-19 -81t-36.5 -71.5t-61 -49t-88.5 -19.5q6 -62 23 -82q27 -11 85 -17l27 -3l-8 -65
q-26 -8 -45 -8q-140 0 -146 128q0 17 6 47q-39 2 -73 14.5t-49 23.5l-14 12q-34 58 -34 181q0 306 246 306q47 0 87 -12.5t57 -25.5l16 -13q32 -58 32 -181z" />
    <glyph glyph-name="dollar.smcp" horiz-adv-x="491" 
d="M209 333l13 -9l3 121q-29 -4 -42 -22q-8 -13 -8 -36q0 -19 7.5 -30t26.5 -24zM206 -60l3 61q-39 1 -73 9.5t-49 16.5l-15 8v30l32 37l108 -36l5 160l-113 77q-16 31 -16 60q0 62 38 98t103 40l-4 58l35 6h39l-2 -60q48 -5 107 -24v-41l-47 -25l-63 26l-6 -145l121 -83
q25 -23 25 -67q0 -59 -40 -96.5t-117 -47.5l6 -62h-77zM329 85q7 13 9 34q0 24 -7 38.5t-27 30.5l-22 16l-4 -144q36 3 51 25z" />
    <glyph glyph-name="ampersand.smcp" horiz-adv-x="735" 
d="M477 351h251l5 -52l-97 -3q-47 -132 -130 -209q32 -19 89 -33l120 22l20 -46q-66 -37 -131 -37q-88 0 -185 46q-84 -46 -179 -46q-93 0 -151 38q-14 21 -24.5 56.5t-10.5 60.5v7l43 10h55q26 -115 107 -115q43 0 82 26q-136 92 -205 234q-4 42 -4 62q0 78 54.5 118
t149.5 40q75 0 131 -39q14 -21 14 -55q0 -57 -56.5 -104t-131.5 -74q55 -81 135 -137q35 26 66.5 74t48.5 99l-55 -1zM224 399q0 -43 28 -97q124 50 124 118q0 51 -68 51q-45 0 -67 -13q-17 -20 -17 -59z" />
    <glyph glyph-name="sterling.smcp" horiz-adv-x="486" 
d="M261 471q-67 0 -67 -59q0 -44 54 -117h135v-49l-91 -2q25 -48 31 -90q-11 -45 -53 -87v-3l185 -20l-11 -52l-253 15l-131 -24l-25 67l70 14q43 13 72 42t29 58q0 36 -31 76l-106 -2l-8 57h68l-25 54q-4 26 -4 46q0 71 55.5 103t129.5 32q73 0 124 -23v-41l-48 -25z" />
    <glyph glyph-name="Euro.smcp" horiz-adv-x="477" 
d="M23 187l-9 50h72v37l-50 -1l-10 50h71q37 189 209 205q58 5 136 -20v-41l-47 -24l-96 28q-40 0 -68 -32q-25 -36 -34 -116h185v-44l-190 -6l1 -36h169v-45l-165 -5q9 -127 109 -133l116 19l20 -45q-80 -35 -149 -35q-55 0 -98.5 13t-58.5 26l-16 13q-26 40 -33 143z" />
    <glyph glyph-name="currency.smcp" horiz-adv-x="481" 
d="M458 387q0 -90 -58.5 -132.5t-179.5 -44.5q-7 0 -31 1v-41h159v-50h-18q-18 -1 -29 -1l-112 -4v-34l16 -67l-74 -14h-43l1 113l-47 -1l-9 58h58l1 42l-50 -1l-9 56h59l5 157l-26 71q103 35 195 35q52 0 94.5 -13t59.5 -25l16 -13q22 -33 22 -92zM249 479q-35 0 -64 -8
l9 -29q-5 -163 -5 -176h38q69 0 102 21q25 37 25 94q0 40 -25.5 69t-79.5 29z" />
    <glyph glyph-name="uni20B4.smcp" horiz-adv-x="497" 
d="M261 323l27 26q29 32 26 67q-7 38 -42 46q-27 0 -66.5 -9t-65.5 -19l-26 -9l-29 55q94 46 200 46q71 0 123 -40q7 -10 13 -29.5t6 -30.5q0 -23 -6 -37t-26 -34l-34 -32h78v-44l-219 -6l-79 1l-65 -1l-11 50h196zM128 187h-58l-9 50h375v-45q-202 -5 -207 -5
q-26 -34 -26 -79q0 -49 70 -49l133 25l18 -50q-29 -16 -77.5 -28.5t-89.5 -12.5q-65 0 -97.5 11.5t-56.5 33.5q-9 23 -9 61q0 30 13 66z" />
    <glyph glyph-name="zero.alt" horiz-adv-x="507" 
d="M50 255q0 137 55 206t175 69q44 0 82.5 -13t55.5 -25l16 -13q28 -62 28 -211q0 -137 -55 -206t-175 -69q-44 0 -82 12.5t-54 25.5l-17 13q-29 64 -29 211zM150 261q0 -117 22.5 -163.5t86.5 -46.5q44 0 75 33q28 60 28 177q0 118 -22.5 164t-85.5 46q-51 0 -76 -32
q-28 -57 -28 -178z" />
    <glyph glyph-name="one.alt" horiz-adv-x="316" 
d="M126 0l15 402l-119 -9l-8 32l92 36l90 69l36 -1l-3 -448l16 -67l-74 -14h-45z" />
    <glyph glyph-name="two.alt" horiz-adv-x="437" 
d="M45 0v50l194 227q69 79 69 135q0 22 -17 40.5t-46 18.5l-142 -32l-26 46q101 45 185 45q39 0 72.5 -10t47.5 -20l13 -11q6 -7 12 -28t6 -41q0 -78 -92 -184l-156 -181l234 9l9 -64h-363z" />
    <glyph glyph-name="three.alt" horiz-adv-x="470" 
d="M55 91l146 -40q60 0 96 26q18 32 18 72q0 90 -88 98l-94 7v49h119q16 9 30 37t14 61q0 31 -18.5 50.5t-49.5 19.5l-136 -30l-27 46q104 43 179 43q44 0 79.5 -11t48.5 -22l13 -11q6 -7 12.5 -25.5t6.5 -33.5q0 -43 -22 -79t-51 -58l54 -9q35 -39 35 -108
q0 -84 -60.5 -132t-162.5 -48q-85 0 -173 45z" />
    <glyph glyph-name="four.alt" horiz-adv-x="471" 
d="M14 122v35l229 290l47 83h51v-7q-8 -82 -60 -153l-146 -193l139 6l-1 14l-6 82l61 14h37v-106l82 2l11 -67h-93v-41l19 -67l-69 -14l-39 1l-3 121h-259z" />
    <glyph glyph-name="five.alt" horiz-adv-x="444" 
d="M294 183q0 36 -17.5 56t-45.5 20q-90 0 -162 -4l-4 3q6 154 6 166l-25 85l66 14h280l-11 -64l-220 11l3 -28l-12 -149l1 -1q58 19 119 28q59 0 103 -31q24 -36 24 -102q0 -80 -56.5 -137t-154.5 -57q-93 0 -174 41l31 58l146 -35q28 0 53 8.5t35 19.5q15 27 15 98z" />
    <glyph glyph-name="six.alt" horiz-adv-x="470" 
d="M50 213q0 167 61 242t186 75q32 0 63 -4t46 -8l15 -5v-34l-35 -32l-100 20q-63 9 -102 -31q-34 -64 -36 -168q70 53 135 53q72 0 113 -26q40 -43 40 -118q0 -79 -51 -131.5t-153 -52.5q-50 0 -88.5 13.5t-52.5 27.5l-14 13q-27 54 -27 166zM252 258q-18 0 -37 -6.5
t-30 -13t-23.5 -16t-13.5 -10.5q6 -83 27 -120.5t76 -37.5q54 0 72 26q16 27 16 76q0 53 -19.5 77.5t-67.5 24.5z" />
    <glyph glyph-name="seven.alt" horiz-adv-x="414" 
d="M27 453l-8 70h381v-40l-216 -483h-115l222 463z" />
    <glyph glyph-name="eight.alt" horiz-adv-x="450" 
d="M150 271l-81 62q-9 27 -11 59q0 59 49 98.5t132 39.5q76 0 137 -38q17 -37 17 -74q0 -66 -69 -124l-21 -17l93 -65q15 -30 15 -71q0 -68 -51.5 -108t-140.5 -40q-85 0 -153 43q-21 36 -21 79q0 70 82 137zM230 312l34 26q35 29 37 68q0 34 -22.5 49.5t-50.5 15.5
q-47 0 -68 -20q-8 -16 -8 -45q0 -12 4 -23t15 -22l16 -16t23 -18t20 -15zM223 237l-40 -27q-42 -35 -42 -81q0 -33 23 -55.5t62 -22.5q58 0 78 30q8 21 8 48q0 23 -10 39.5t-37 37.5z" />
    <glyph glyph-name="nine.alt" horiz-adv-x="468" 
d="M62 90l125 -30l29 -4q51 2 78 30q29 49 34 165q-65 -46 -138 -46q-87 0 -118.5 37.5t-31.5 106.5q0 77 54.5 129t157.5 52q44 0 80.5 -13t51.5 -25l14 -13q25 -59 25 -180q0 -75 -12.5 -131.5t-31.5 -89t-47.5 -52.5t-56 -26.5t-60.5 -6.5q-48 0 -92 11.5t-64 22.5
l-20 11zM134 359q0 -46 20 -69t68 -23q57 0 106 42q-4 91 -25 125t-77 34q-49 0 -70 -26q-22 -31 -22 -83z" />
    <glyph glyph-name="hyphen.alt" horiz-adv-x="372" 
d="M35 411h305v-70l-295 -9z" />
    <glyph glyph-name="endash.alt" horiz-adv-x="497" 
d="M35 411h430v-70l-420 -9z" />
    <glyph glyph-name="emdash.alt" horiz-adv-x="597" 
d="M35 411h530v-70l-520 -9z" />
    <glyph glyph-name="exclam.smcp" horiz-adv-x="253" 
d="M82 208l6 230l-18 88l75 14h45l3 -82l-26 -208v-42h-85zM77 -10l-12 96l70 14h52v-15q0 -53 -10 -95h-100z" />
    <glyph glyph-name="question.smcp" horiz-adv-x="347" 
d="M200 192l-88 -1q-2 12 -2 27q0 36 16.5 60.5t58.5 60.5l22 21q34 32 34 59q0 21 -16 35q-26 13 -47 13l-33 -6l-106 -26l-26 56q94 52 183 52q84 0 128 -39q14 -34 14 -70q0 -43 -20 -74t-61 -67l-51 -45zM109 -10l-12 96l70 14h52v-15q0 -53 -10 -95h-100z" />
    <glyph glyph-name="period.smcp" horiz-adv-x="243" 
d="M72 -10l-12 96l70 14h53v-15q0 -56 -11 -95h-100z" />
    <glyph glyph-name="comma.smcp" horiz-adv-x="252" 
d="M97 1l-27 86l76 14h46v-15q0 -68 -25.5 -126t-50.5 -73l-29 10z" />
    <glyph glyph-name="guillemotleft.smcp" horiz-adv-x="385" 
d="M155 117h-4q-29 46 -63 83t-54 50l-19 14q6 11 16.5 29.5t50 64t85.5 76.5l36 -27q-32 -31 -55 -63t-30 -48l-7 -17q8 -6 20 -18.5t35.5 -48t41.5 -79.5zM309 117h-4q-29 46 -62.5 83t-52.5 50l-20 14q2 4 6 11t17.5 28t29.5 41t42 45t55 45l37 -27q-33 -32 -56.5 -64
t-30.5 -48l-7 -16q8 -6 20 -18.5t35.5 -48t41.5 -79.5z" />
    <glyph glyph-name="guillemotright.smcp" horiz-adv-x="385" 
d="M234 117h-4l-53 16q18 44 41.5 79.5t35.5 48t20 18.5q-19 58 -92 128l36 27q46 -31 84 -73.5t53 -69.5l15 -27q-8 -5 -21.5 -15t-49.5 -48t-65 -84zM80 117h-4l-51 16q18 44 41.5 79.5t35.5 48t20 18.5q-19 57 -94 128l37 27q45 -31 82.5 -73.5t52.5 -69.5l15 -27
q-8 -5 -21.5 -15t-49 -48t-64.5 -84z" />
    </font>
</defs>
</svg>
